<?xml version="1.0" encoding="utf-8"?>
<!-- Generator: Adobe Illustrator 23.0.0, SVG Export Plug-In . SVG Version: 6.00 Build 0)  -->
<svg version="1.1" id="图层_1" xmlns="http://www.w3.org/2000/svg" xmlns:xlink="http://www.w3.org/1999/xlink" x="0px" y="0px"
	 viewBox="0 0 500 500" style="enable-background:new 0 0 500 500;" xml:space="preserve">
<style type="text/css">
	.st0{fill:#F5F5F5;}
	.st1{fill:#E0E0E0;}
	.st2{fill:#28B767;}
	.st3{fill:#455A64;}
	.st4{fill:#D37946;}
	.st5{opacity:0.81;fill:#E0E0E0;enable-background:new    ;}
	.st6{fill:#407BFF;}
	.st7{fill:#263238;}
	.st8{fill:#37474F;}
	.st9{opacity:0.9;fill:#FFFFFF;enable-background:new    ;}
	.st10{opacity:0.4;}
	.st11{fill:#FC9252;}
	.st12{fill:#F0F0F0;}
	.st13{fill:#FFCF11;}
	.st14{opacity:0.5;fill:#455A64;enable-background:new    ;}
	.st15{fill:#FFFFFF;}
	.st16{opacity:0.5;}
	.st17{font-family:'ArialMT';}
	.st18{font-size:24.2967px;}
	.st19{opacity:0.1;fill:#FC9252;}
	.st20{fill:#FFA8A7;}
	.st21{fill:#F9BB0D;}
	.st22{fill:#E0AD0A;}
	.st23{opacity:0.3;enable-background:new    ;}
	.st24{fill:#A07808;}
	.st25{fill:#F28F8F;}
	.st26{opacity:0.5;enable-background:new    ;}
	.st27{fill:#FFBDA7;}
	.st28{opacity:0.2;enable-background:new    ;}
	.st29{opacity:0.6;enable-background:new    ;}
	.st30{fill:#E6E6E6;}
	.st31{fill:#F79776;}
	.st32{opacity:0.25;enable-background:new    ;}
	.st33{opacity:0.1;}
	.st34{fill:#914F4E;}
	.st35{fill:#783736;}
</style>
<g id="freepik--Floor--inject-34">
	<ellipse id="freepik--floor--inject-34" class="st0" cx="245" cy="349.7" rx="225.1" ry="129.9"/>
</g>
<g id="freepik--Shadows--inject-34">
	<ellipse id="freepik--Shadow--inject-34" class="st1" cx="283.5" cy="397.2" rx="41.4" ry="23.9"/>
	<ellipse id="freepik--shadow--inject-34" class="st1" cx="391.2" cy="383.1" rx="41.4" ry="23.9"/>
	<ellipse class="st1" cx="164.8" cy="433.1" rx="41.4" ry="23.9"/>
</g>
<g id="freepik--Plants--inject-34">
	<g>
		<g id="freepik--plants--inject-34_8_">
			<path class="st2" d="M97,354.5c0,0-1.1-25.3-11.7-39.3s-23.6-16.1-30-12.1c-4.7,2.9-4.1,11.4,4.1,17s23.8,19.8,26.2,29.1
				L97,354.5z"/>
			<path class="st2" d="M90,350.8c-0.4,0-0.6-0.3-0.6-0.7c1.1-22.9-19-37.2-24.5-39.8c-0.3-0.2-0.5-0.5-0.3-0.9
				c0.2-0.3,0.5-0.5,0.9-0.3c5.6,2.7,26.3,17.4,25.2,41C90.7,350.5,90.4,350.8,90,350.8L90,350.8z"/>
			<path class="st2" d="M92,346.5c-1.4,0-2.8-0.6-3.9-1.5c-1.2-1.4-1.1-3.4-1.7-5.2c-0.9-2.9-3.8-4.8-6.7-5.4c-3-0.5-6-0.3-8.9,0.6
				c-5.9,1.5-11.6-2.2-17.5-1.8c-2.1,0.1-4.2,0.7-6,1.9c-1.8,1.2-2.9,3.2-2.9,5.4c0.2,1.8,1.1,3.4,2.4,4.5c1.4,1.1,2.9,2.1,4.5,2.8
				l5.2,2.6c0.9,0.4,1.7,0.9,2.5,1.6c1.4,1.5,2.1,3.5,1.8,5.5c-0.4,2-2,3.5-2.5,5.5c-0.6,2.6,0.9,5.3,3.2,6.7c2.3,1.3,5,1.8,7.7,1.5
				c2.7-0.1,5.3-0.7,7.9-0.7c1.8-0.1,3.6,0.3,5.2,1.1c1.8,1.3,3.1,3.1,3.6,5.3c0.3,1.4,0.9,2.7,1.6,3.9c0.9,1.1,2.1,2,3.5,2.5
				c2.7,1,5.6,1,8.3,0c2.2-0.8,3.3-3.3,4.1-5.5c0.8-2.2,1.2-4.6,1.2-7c-0.1-6.1-1.5-12.2-4.1-17.7c-1.2-2.6-3-5.1-5.7-6
				C93.8,346.8,92.9,346.6,92,346.5z"/>
			<path class="st2" d="M97.7,374c-0.2,0-0.5-0.2-0.6-0.4c-6.2-17.7-35.4-33.1-46-34.9c-0.3-0.1-0.5-0.4-0.5-0.7
				c0.1-0.3,0.4-0.5,0.7-0.5c10.9,1.8,40.7,17.5,47,35.6c0.1,0.3,0,0.6-0.3,0.7c0,0,0,0,0,0C97.9,374,97.8,374,97.7,374z"/>
			<path class="st2" d="M71.4,364.3c-0.3,0-0.6-0.3-0.5-0.6c0-0.1,0.1-0.3,0.2-0.4c4.8-3.3,10.4-5.1,16.2-5.2l0,0
				c0.3,0,0.6,0.3,0.5,0.7c0,0.3-0.2,0.5-0.5,0.5c-5.6,0.1-10.9,1.9-15.5,5C71.7,364.3,71.6,364.3,71.4,364.3z"/>
		</g>
	</g>
</g>
<g id="freepik--Page--inject-34">
	<path class="st3" d="M98,387.7c-1.3-0.9-2.1-2.3-2.1-3.8V175.5c0.1-1.6,0.9-3,2.3-3.9L343.3,30c2-1.2,4.6-0.7,5.8,1.3
		c0.5,0.7,0.7,1.6,0.6,2.4v208.4c-0.1,1.6-0.9,3-2.3,3.9L102.4,387.6C101,388.3,99.4,388.3,98,387.7z"/>
	<path class="st4" d="M101.9,387.8L101.9,387.8c-0.2,0-0.2,0.1-0.3,0.1h-0.2c-0.1,0-0.2,0.1-0.3,0.1c-0.1,0-0.1,0-0.2,0l-0.3,0
		c-0.9,0.1-1.8,0-2.6-0.5c-1.3-0.9-2.1-2.3-2.1-3.8V202.2l4.2,2.4v181.7c0,1,0.5,1.6,1.3,1.6c0.1,0,0.2,0,0.3,0l0,0
		C101.8,387.9,101.8,387.8,101.9,387.8z"/>
	<path class="st5" d="M101.9,387.8L101.9,387.8c-0.2,0-0.2,0.1-0.3,0.1h-0.2c-0.1,0-0.2,0.1-0.3,0.1c-0.1,0-0.1,0-0.2,0l-0.3,0
		c-0.9,0.1-1.8,0-2.6-0.5c-1.3-0.9-2.1-2.3-2.1-3.8V202.2l4.2,2.4v181.7c0,1,0.5,1.6,1.3,1.6c0.1,0,0.2,0,0.3,0l0,0
		C101.8,387.9,101.8,387.8,101.9,387.8z"/>
	<polygon class="st6" points="100.1,204.6 95.9,202.2 95.9,242.5 100.1,245 	"/>
	<polygon class="st4" points="100.1,204.6 95.9,202.2 95.9,242.5 100.1,245 	"/>
	<path class="st7" d="M100.8,175.7c-0.4,0.7-0.6,1.4-0.7,2.2v26.7l-4.2-2.4v-26.7c0-0.1,0-0.2,0-0.3c0-0.2,0-0.4,0.1-0.6
		c0.1-0.5,0.3-1,0.6-1.4L100.8,175.7z"/>
	<path class="st8" d="M349.8,33.8v12.1L170.1,149.6c-1.2,0.7-2.3,0.1-2.3-1.3v-4.6c0-1.4-1-2-2.3-1.3L110.8,174
		c-1.3,0.9-2.2,2.3-2.3,3.9v4.6c-0.1,1.6-0.9,3-2.3,3.9l-6.2,3.6v-12c0.1-1.6,0.9-3,2.3-3.9L347.5,32.5
		C348.8,31.7,349.8,32.3,349.8,33.8z"/>
	<path class="st6" d="M349.8,242.1c-0.1,1.6-0.9,3-2.3,3.9L102.4,387.6c-1.2,0.7-2.3,0.1-2.3-1.3V190l6.2-3.6
		c1.2-0.7,3.3-11.7,4.5-12.4l53.8-31.1c1.3-0.7,4.2,7.4,5.4,6.6L349.8,45.8L349.8,242.1L349.8,242.1z"/>
	<path class="st9" d="M349.8,242.1c-0.1,1.6-0.9,3-2.3,3.9L102.4,387.6c-1.2,0.7-2.3,0.1-2.3-1.3V190l6.2-3.6
		c1.2-0.7,3.3-11.7,4.5-12.4l53.8-31.1c1.3-0.7,4.2,7.4,5.4,6.6L349.8,45.8L349.8,242.1L349.8,242.1z"/>
	<g class="st10">
		<g>
			<path class="st11" d="M348.8,47.5v194.6c-0.1,1.2-0.7,2.3-1.8,3L101.9,386.7c-0.2,0.1-0.3,0.2-0.5,0.2c-0.2,0-0.2-0.5-0.2-0.6
				V190.5l5.7-3.3c0.9-0.5,1.4-2.3,2.7-6.8c0.5-1.9,1.1-3.8,1.9-5.7l53.4-30.8c0.6,0.9,1.2,1.8,1.7,2.7c1.4,2.5,2.3,3.9,3.4,3.9
				c0.2,0,0.5-0.1,0.7-0.2L348.8,47.5 M349.8,45.8L170.1,149.6c-0.1,0-0.1,0-0.2,0c-1.3,0-3.8-6.7-5.1-6.7c-0.1,0-0.1,0-0.2,0
				L110.8,174c-1.3,0.7-3.3,11.7-4.5,12.4l-6.2,3.6v196.3c0,1,0.5,1.6,1.2,1.6c0.4,0,0.7-0.1,1-0.3l245.2-141.6
				c1.3-0.9,2.2-2.3,2.3-3.9L349.8,45.8L349.8,45.8z"/>
		</g>
	</g>
	<polygon class="st11" points="100.1,204.6 100.1,245 349.8,100.9 349.8,60.5 	"/>
	<path class="st12" d="M349.8,45.8v14.7L100.1,204.6V190l4.6-2.7c1.2-0.7,1.7-1.8,2.3-3.9l1.6-5.5c0.5-1.9,1-3.2,2.3-3.9l53.8-31.1
		c1.3-0.7,2.2-0.8,3.2,0.8l1.9,3.5c0.7,1.2,1.1,1.9,2.3,1.2L349.8,45.8z"/>
	<path class="st13" d="M339.2,41.3c1.6-0.9,2.8-0.2,2.8,1.6c-0.1,2-1.2,3.8-2.8,4.9c-1.6,0.9-2.8,0.2-2.8-1.6
		C336.5,44.2,337.5,42.4,339.2,41.3z"/>
	<path class="st13" d="M329,47.2c1.6-0.9,2.8-0.2,2.8,1.6c-0.1,2-1.2,3.8-2.8,4.9c-1.6,0.9-2.8,0.2-2.8-1.6
		C326.3,50.1,327.3,48.3,329,47.2z"/>
	<path class="st13" d="M318.8,53.1c1.6-0.9,2.8-0.2,2.8,1.6c-0.1,2-1.2,3.8-2.8,4.9c-1.6,0.9-2.8,0.2-2.8-1.6
		C316,56,317.1,54.2,318.8,53.1z"/>
	<path class="st14" d="M110.4,191l-3.5,2l1.3-2.6c0.1-0.2,0.1-0.4,0-0.6c-0.1-0.1-0.3,0-0.4,0.2l-1.9,3.7l0,0c0,0,0,0.1,0,0.1l0,0
		c0,0.1,0,0.1,0,0.2c0,0.1,0,0.1,0,0.2l0,0c0,0,0,0.1,0,0.1l0,0l1.9,1.5c0.1,0,0.1,0,0.2,0c0.1-0.1,0.2-0.2,0.2-0.3
		c0.1-0.2,0.1-0.5,0-0.6l-1.3-1l3.5-2c0.2-0.1,0.3-0.4,0.3-0.6C110.7,191,110.6,190.9,110.4,191z"/>
	<path class="st14" d="M113.4,189.3l3.5-2l-1.3-1c-0.1-0.1-0.1-0.4,0-0.6s0.3-0.4,0.4-0.3l1.9,1.5l0,0c0,0,0,0,0.1,0.1l0,0
		c0,0.1,0,0.1,0,0.2c0,0.1,0,0.1,0,0.2c0,0,0,0,0,0.1c0,0,0,0.1-0.1,0.1l0,0l-1.9,3.7c0,0.1-0.1,0.2-0.2,0.2c-0.1,0.1-0.2,0.1-0.2,0
		c-0.1-0.2-0.1-0.4,0-0.6l1.3-2.6l-3.5,2.1c-0.2,0.1-0.3,0-0.3-0.3C113.1,189.7,113.2,189.4,113.4,189.3z"/>
	<path class="st14" d="M125,179.1c0-0.2-0.2-0.2-0.3,0.1l-0.5,1.2c-0.8-0.1-1.8,0.7-2.5,2.1c-0.9,1.9-0.9,4,0,4.9
		c0.4,0.4,1.1,0.5,1.6,0.1c0.7-0.5,1.3-1.1,1.6-1.9c0.1-0.2,0.1-0.4,0-0.6c-0.1-0.1-0.3,0-0.4,0.2c-0.7,1.4-1.7,2-2.4,1.4
		s-0.7-2.3,0-3.7c0.5-1,1.1-1.6,1.7-1.6l-0.4,0.9c-0.1,0.2,0,0.4,0.1,0.4l1.4-0.9c0.1-0.1,0.2-0.2,0.2-0.4L125,179.1z"/>
	<path class="st14" d="M163.1,149.6l1.3-2.7c0.2-0.3,0.2-0.6,0-0.9c-0.1-0.1-0.4,0-0.6,0.3l-1.3,2.7l-1.3-1.2
		c-0.1-0.1-0.4,0-0.6,0.3c-0.2,0.3-0.2,0.6,0,0.9l1.3,1.2l-1.3,2.8c-0.2,0.3-0.2,0.6,0,0.9c0.1,0.1,0.2,0.1,0.3,0
		c0.1-0.1,0.2-0.2,0.3-0.3l1.3-2.7l1.3,1.3c0.1,0.1,0.2,0.1,0.3,0c0.1-0.1,0.2-0.2,0.3-0.3c0.2-0.3,0.2-0.6,0-0.9L163.1,149.6z"/>
	<path class="st15" d="M129.7,182.5v-4.6c0.1-1.6,0.9-3,2.3-3.9L334.9,57c1.3-0.7,2.3-0.1,2.3,1.3v4.5c-0.1,1.6-0.9,3-2.3,3.9
		L132,183.8C130.7,184.5,129.7,183.9,129.7,182.5z"/>
	<path class="st1" d="M331.8,67c-0.1,0-0.1,0-0.2,0c-0.2-0.1-0.3-0.4-0.3-0.6l0.2-1.9l0,0l-0.9-0.7c-0.1-0.1-0.2-0.3-0.2-0.4
		c0-0.3,0.1-0.5,0.3-0.7l1.3-1c0,0,0.1-0.1,0.1-0.2l0.6-1.9c0.1-0.3,0.3-0.5,0.6-0.6c0.2,0,0.4,0.1,0.4,0.3l0,0l0.5,1.1l1.2-0.5
		c0.2-0.1,0.4,0,0.5,0.1c0.2,0.2,0.2,0.6,0,0.8l-1,1.8c0,0.1,0,0.1,0,0.2l0.2,1.6c0,0.3-0.1,0.5-0.3,0.7c-0.1,0.1-0.3,0.2-0.4,0.2
		l-1.2-0.2l-1.1,1.5C332.1,66.9,331.9,67,331.8,67z M331,63.3l0.9,0.7c0.2,0.1,0.2,0.3,0.2,0.5l-0.1,1.6l1-1.3
		c0.1-0.2,0.3-0.3,0.5-0.3l1.2,0.2c0,0,0-0.2,0-0.2l-0.2-1.6c0-0.2,0-0.4,0.1-0.5l1-1.8l-1.1,0.4c-0.2,0.1-0.5,0-0.6-0.2
		c0,0,0,0,0,0l-0.5-1l0,0l-0.6,1.9c0,0.2-0.2,0.3-0.3,0.5l-1.3,1C331.1,63.2,331,63.2,331,63.3z"/>
	<g class="st16">
		<path class="st3" d="M339.8,56.4c-0.4,0-0.8-0.3-0.8-0.8c0-0.3,0.1-0.5,0.4-0.7l6.3-3.7c0.4-0.2,0.9-0.1,1.1,0.3
			c0.2,0.4,0.1,0.9-0.3,1.1l-6.4,3.7C340,56.3,339.9,56.4,339.8,56.4z"/>
		<path class="st3" d="M339.8,60c-0.3,0-0.5-0.1-0.7-0.4c-0.2-0.4-0.1-0.8,0.3-1.1c0,0,0,0,0,0l6.3-3.7c0.4-0.2,0.9,0,1,0.4
			c0.2,0.3,0,0.8-0.3,1l-6.4,3.7C340,60,339.9,60,339.8,60z"/>
		<path class="st3" d="M339.8,63.7c-0.3,0-0.5-0.1-0.7-0.4c-0.2-0.4-0.1-0.8,0.3-1.1c0,0,0,0,0,0l6.3-3.7c0.4-0.2,0.9-0.1,1.1,0.3
			c0.2,0.4,0.1,0.9-0.3,1.1l-6.4,3.7C340,63.7,339.9,63.7,339.8,63.7z"/>
	</g>
	<polygon class="st1" points="100.1,189.9 100.1,204.6 95.9,202.2 95.9,187.5 	"/>
	<text transform="matrix(0.65 -0.38 0 1 270.8401 135.6695)" class="st3 st17 st18">About us</text>
	<polygon class="st19" points="110.9,254.5 180,214.6 180,327.2 110.7,367 	"/>
	<path class="st19" d="M195.2,207.9l83.3-48.1c1.7-1,3-0.2,3,1.6c-0.1,2.1-1.2,4-3,5.2l-83.3,48.6c-1.7,1-3,0.2-3-1.7v-0.4
		C192.3,211.1,193.4,209.1,195.2,207.9z"/>
	<path class="st19" d="M194.3,222.5l137.8-79.6c1.2-0.7,2.2-0.2,2.2,1.1c-0.1,1.5-0.9,2.8-2.2,3.6l-137.8,79.6
		c-1.2,0.7-2.2,0.2-2.2-1.1C192.3,224.6,193.1,223.3,194.3,222.5z"/>
	<path class="st19" d="M194.3,231.9l137.8-79.6c1.2-0.7,2.2-0.2,2.2,1.1c-0.1,1.5-0.9,2.8-2.2,3.6l-137.8,79.6
		c-1.2,0.7-2.2,0.2-2.2-1.1C192.3,234,193.1,232.7,194.3,231.9z"/>
	<path class="st19" d="M194.3,241.3l137.8-79.6c1.2-0.7,2.2-0.2,2.2,1.1c-0.1,1.5-0.9,2.8-2.2,3.6L194.3,246
		c-1.2,0.7-2.2,0.2-2.2-1.1C192.3,243.4,193.1,242.1,194.3,241.3z"/>
	<path class="st19" d="M194.3,250.8l137.8-79.6c1.2-0.7,2.2-0.2,2.2,1.1c-0.1,1.5-0.9,2.8-2.2,3.6l-137.8,79.6
		c-1.2,0.7-2.2,0.2-2.2-1.1C192.3,252.9,193.1,251.5,194.3,250.8z"/>
	<path class="st19" d="M194.3,260.2l96.2-56c1.2-0.7,2.2-0.2,2.2,1.1c-0.1,1.5-0.9,2.8-2.2,3.6l-96.2,56c-1.2,0.7-2.2,0.2-2.2-1.1
		C192.3,262.3,193.1,261,194.3,260.2z"/>
	<path class="st19" d="M194.3,279l137.8-79.6c1.2-0.7,2.2-0.2,2.2,1.1c-0.1,1.5-0.9,2.8-2.2,3.6l-137.8,79.6
		c-1.2,0.7-2.2,0.2-2.2-1.1C192.3,281.1,193.1,279.8,194.3,279z"/>
	<path class="st19" d="M194.3,288.4l137.8-79.6c1.2-0.7,2.2-0.2,2.2,1.1c-0.1,1.5-0.9,2.8-2.2,3.6l-137.8,79.6
		c-1.2,0.7-2.2,0.2-2.2-1.1C192.3,290.5,193.1,289.2,194.3,288.4z"/>
	<path class="st19" d="M194.3,297.8l137.8-79.6c1.2-0.7,2.2-0.2,2.2,1.1c-0.1,1.5-0.9,2.8-2.2,3.6l-137.8,79.6
		c-1.2,0.7-2.2,0.2-2.2-1.1C192.3,300,193.1,298.6,194.3,297.8z"/>
	<path class="st19" d="M194.3,307.3l50.7-29.6c1.2-0.7,2.2-0.2,2.2,1.1c-0.1,1.5-0.9,2.8-2.2,3.6l-50.6,29.6
		c-1.2,0.7-2.2,0.2-2.2-1.1C192.3,309.4,193.1,308,194.3,307.3z"/>
</g>
<g id="freepik--character-3--inject-34">
	<path class="st20" d="M378.5,253.2c7.3-23.8,14.5-39.4,7.2-44.3l0,0c-6.8,1.3-9.8,4.6-11.2,13.5c-1.5,9.4-4.6,22.4-6.5,29.9
		c-1.6,6.3-3.8,12.4-6.8,18.2c-0.4,0.8-1.1,1.4-2,1.8c-2.3,0.9-3.3,2-5.2,3.4c-1.5,1-2.5,1.1-2.4,1.6c0.2,1,1.3,1.6,2.3,1.4
		c1.1-0.2,2.1-0.5,3.1-1c-0.9,2.2-2.2,4.2-3.9,5.8c-3.5,3-3,5.9,2.7,6.3c2,0.1,6.8-1.7,11.2-9.2c1.5-2.8,2.8-5.7,3.9-8.6
		C373.9,264.1,377.1,258,378.5,253.2z"/>
	<path class="st6" d="M387,208.6c0,0-5.6-0.3-9.1,3.5s-7.4,26.3-7.4,26.3s3.7,5.1,13.6,3L387,208.6z"/>
	<path class="st21" d="M387,208.6c0,0-5.6-0.3-9.1,3.5s-7.4,26.3-7.4,26.3s3.7,5.1,13.6,3L387,208.6z"/>
	<rect x="405.8" y="368.4" class="st20" width="7.6" height="13.5"/>
	<polygon class="st20" points="387.2,367.7 379.6,367.9 379.2,353.6 387.2,353.4 	"/>
	<path class="st8" d="M414.5,251.5c0,7.5-1.1,68.1-1.1,68.1c0.2,2.2,2.1,6.2,1.7,14.5c-0.6,11.3-1.3,41-1.3,41
		c-2.6,1.4-5.7,1.4-8.4,0.2c0,0-7.2-41.1-8.5-52.4c-1.2-9.8-3.2-42.7-3.2-42.7l-4.1,38.3c0.9,4.1,1.2,8.3,0.9,12.5
		c-0.4,5.2-2.8,32.2-2.8,32.2c-2.7,1.6-5.9,1.8-8.7,0.7c0,0-4.3-40.6-4.4-45.4c-0.1-5.4,2.5-67.1,2.5-67.1L414.5,251.5z"/>
	<path class="st7" d="M405.8,378v-1.1c-0.7,0.3-2.4,7-5.4,9.9c-2.4,2.3-5.6,4.9-6.5,7.4s4.5,4.1,6.8,3.7c2.6-0.5,7.1-2.4,8.2-4.1
		s1.7-4.4,2.6-5.6s3-2.7,3.5-4.2c0.3-0.8,0-2.6-0.4-4.1s-0.7-2.9-1.2-2.8v0.9c-1.1,0.9-2.4,1.4-3.8,1.3
		C408.5,379.1,405.8,378.9,405.8,378z"/>
	<path class="st7" d="M379.5,365.5c-0.4,0-0.7,0.6-1.6,1.6c-1.3,1.4-2.8,2.5-4.5,3.3c-2.8,1.5-8.4,3.8-10.9,4.9
		c-1.5,0.7-1.5,2.7,0.1,3.8s5.5,1.9,10.2,0.8c2.5-0.6,5.9-3,8-2.9s6,0.1,7.6-1s0.9-3.5,0.5-5.5c-0.5-2.2-1.1-5.7-1.8-5.5v0.8
		c-0.9,1.4-5.6,2-7.6,1L379.5,365.5z"/>
	<path class="st7" d="M393.6,280.3c-3.9-1.3-7.5-3.4-10.5-6.3c0,0,2,4,8.1,7.7l-1.3,34.2L393.6,280.3z"/>
	<path class="st22" d="M410.5,210.4c0,0,5.9,0.6,5.5,11.8l-1.3,18v27c-5.6,6.3-30.3,5.8-38.7-0.5c0,0,1-31.9,1.5-44.2
		c0.4-8.7,2.4-13.1,11-14.1l10.5,0.5L410.5,210.4z"/>
	<polygon class="st23" points="393.7,216.3 392.4,225.8 389.2,225.8 392.8,226.3 	"/>
	<path class="st7" d="M401.6,185c0.1,6.4-4.9,11.6-11.3,11.8c-6.2,0-11-5.3-11.3-11.7c-0.5-11.5,5-11.8,11.3-11.8
		C396.7,173.4,401.7,178.6,401.6,185z"/>
	<path class="st7" d="M408,190.8c0,0-1.7,8.5-2.4,9.9c-0.4,0.8-1.2,1.5-2.1,1.8l0.1-5.9L408,190.8z"/>
	<path class="st7" d="M405.9,178.7c0,0,1.2-0.3,2.6,1.8c1.1,1.8,1.4,5.7-0.4,10.4l-3.3,0.4L405.9,178.7z"/>
	<path class="st20" d="M403.8,191.2c0.6,0.4,1.6-0.9,2.4-1.8s3.4-2.1,4.8,0.8s-1.2,6.8-3.2,7.5c-3.6,1.2-4.1-1.2-4.1-1.2l-0.3,13.4
		c-4.7,7.3-15.5,7.1-11.6-0.4v-4.1c-1.6,0.3-3.2,0.4-4.8,0.3c-2.6-0.4-4.3-2.6-5.1-5.5c-1.3-4.8-1.8-8.6-0.7-17.9
		c1.2-10.3,12.6-10.3,18.8-6.3S403.8,191.2,403.8,191.2z"/>
	<path class="st24" d="M403.4,206.9c-1.1,2.3-2.7,4.2-4.6,5.8c-1.7,1.2-3.6,2-5.6,2.4c1.7,1.1,3,2.7,4,4.4c1.2,2.6,9.5-4.6,9.4-9.7
		c0,0-1.3-5.1-3.1-5.4L403.4,206.9z"/>
	<path class="st24" d="M393.1,215.1c0,0-2.6-1.3-1.4-5.5v-4.1l-1.1,0.1c-1.3,1.3-2.3,2.9-2.7,4.7c-0.3,1.2-0.9,7.1,0.2,8.3
		S390.8,215.4,393.1,215.1z"/>
	<path class="st7" d="M399.4,180c0.3-0.1,0.6,0,0.9,0.1c1,0.4,1.2,3.5,1.4,4.3c0.6,2.9,1,7.9,2.1,7.9c0.3,0,1.6-2.1,2.4-2.9
		c1.1-1.1-0.3-10.7-0.3-10.7c0.6-1.7,0.2-3.6-1.1-4.9c-2-2.3-5.2-2.8-8.1-3c-3.4-0.2-6.9,0.1-10.3-0.7c-1.1-0.3-2.1-0.5-3.2-0.7
		c-0.1,0-0.2,0-0.3,0c-0.1,0.1-0.1,0.3-0.1,0.4c0.2,1,0.6,2,1.1,2.9c-2-0.2-4-0.6-5.9-1.2c-0.1,0-0.2,0-0.3,0
		c-0.2,0.1-0.3,0.4-0.3,0.6c0.1,2.4,1.3,6.1,3.3,7.5c1.7,1.1,3.8,1.8,5.9,1.9C391.7,181.7,395,180.6,399.4,180z"/>
	<path class="st7" d="M405.9,179.2l4-2.2c-0.5-1.1-1.7-1.6-2.8-1.1c-0.1,0-0.1,0.1-0.2,0.1C405.7,176.7,405.3,178,405.9,179.2z"/>
	<path class="st25" d="M391.7,205.5c0,0,5.9-1.2,7.9-2.4c1.2-0.7,2.2-1.7,2.8-2.9c-0.3,1.2-0.9,2.4-1.6,3.4c-1.5,2-9.1,3.5-9.1,3.5
		V205.5z"/>
	<path class="st7" d="M393.1,189.7c0.1,0.6,0.6,1.1,1.3,1.1s1.1-0.6,1.1-1.3c-0.1-0.6-0.6-1.1-1.2-1.1
		C393.7,188.4,393.1,189,393.1,189.7C393.1,189.7,393.1,189.7,393.1,189.7z"/>
	<path class="st7" d="M395,184.6l2.5,1.4c0.4-0.7,0.2-1.6-0.5-2.1c-0.6-0.4-1.5-0.2-1.9,0.4C395.1,184.5,395,184.5,395,184.6z"/>
	<path class="st25" d="M392.3,198.1l-2.7,1c0.2,0.7,1,1.2,1.7,1c0,0,0.1,0,0.1,0C392.1,199.7,392.5,198.9,392.3,198.1z"/>
	<path class="st7" d="M382.4,185.7l2.3-1.8c-0.4-0.6-1.2-0.8-1.9-0.4c0,0-0.1,0.1-0.1,0.1C382,184.1,381.9,185,382.4,185.7z"/>
	<path class="st7" d="M383.4,189.3c0,0.7,0.5,1.2,1.2,1.3c0,0,0,0,0,0c0.7,0,1.3-0.6,1.3-1.3c0-0.7-0.6-1.3-1.3-1.3
		C383.9,188.1,383.4,188.7,383.4,189.3z"/>
	<polygon class="st25" points="389.7,188.4 389.5,195.8 385.3,194.8 	"/>
	<path class="st6" d="M422.1,195.8c1.7-2.2,5.1,2.7,6.7,6.2s1.6,5.4,0.3,6.7s-3.8,0.5-6.2-2.7S421.1,197.4,422.1,195.8z"/>
	<path class="st26" d="M422.1,195.8c1.7-2.2,5.1,2.7,6.7,6.2s1.6,5.4,0.3,6.7s-3.8,0.5-6.2-2.7S421.1,197.4,422.1,195.8z"/>
	<path class="st20" d="M434,196.5c-6,14-14.4,21.9-18.1,30.9c-4.9-0.3-8.7-12.2-5.1-17.3c0,0,14.4-15.6,15.7-21.7
		c1.2-5.4,2.7-14.4,2.6-19c-0.1-0.8-0.4-1.5-0.9-2c-1.5-1.6-1.5-2.9-2.5-4.7c-0.8-1.4-1.6-1.9-1.3-2.2c0.6-0.7,1.7-0.8,2.5-0.2
		c0.7,0.5,1.3,1.1,1.9,1.8c0.2-1.8-0.1-3.6-0.9-5.3c-1.7-3.8-1.3-5.7,3.8-4.4c3.2,0.9,5.2,3.5,5.7,11.2c0.2,3.2,0.2,6.4,0.1,9.6
		c-0.6,5.9-0.9,12.1-1.6,17C435.4,192.3,434.8,194.5,434,196.5z"/>
	<path class="st6" d="M409.3,210.3l12.7-14.5c0,0-1.5,3.5,1.8,8.7s5.3,4.3,5.3,4.3s-7.5,10.9-9.5,14.6s-4.1,6.8-4.1,6.8
		c-0.5,0.9-1.4,1.4-2.4,1.3C411.2,231.3,406.3,223.1,409.3,210.3z"/>
	<path class="st21" d="M409.3,210.3l12.7-14.5c0,0-1.5,3.5,1.8,8.7s5.3,4.3,5.3,4.3s-7.5,10.9-9.5,14.6s-4.1,6.8-4.1,6.8
		c-0.5,0.9-1.4,1.4-2.4,1.3C411.2,231.3,406.3,223.1,409.3,210.3z"/>
</g>
<g id="freepik--character-2--inject-34">
	<polygon class="st25" points="306.4,242.9 312.4,250.8 306,258.1 297.7,248.5 	"/>
	<path class="st3" d="M286.9,224.8c5.2,0.2,7.7,1,10.4,4.3s16.4,23,16.4,23s-2.4,6.8-7.7,6.2l-9.6-9.9L286.9,224.8z"/>
	<path class="st7" d="M261.3,389.9c-0.4,2.1-0.6,4.2-0.6,6.3c-0.1,3.8-0.8,5.2-0.9,8.3c-0.1,3.6,0.5,4.9,2,6.9s5.3,3.8,6.9,0.4
		s1.4-5.6,0.9-9.1s-0.6-5.6-0.9-8.4c-0.3-2.4-0.6-4.3-0.6-4.3L261.3,389.9z"/>
	<path class="st27" d="M272.1,360l-12.5-0.2c0.2,8.4,1.5,22.3,1.7,30.2c0,1.5,0,11.5,0.5,14.5c0.8,4.6,6.3,4,6.5,1.2
		s-0.4-14.4-0.3-15.6c0-5,2.3-18.2,3.5-27.2C271.7,362.3,272.1,360.4,272.1,360z"/>
	<path class="st7" d="M290.5,383.4c0,0-0.6,0-0.8,0.6s-0.1,1.6-0.4,2.7c-0.4,1.6-0.6,3.3-0.4,5c0.2,1.2,2.9,2.9,4.7,3.2
		s4.4,2.1,5.8,3.5c2.3,1.9,5.1,3,8.1,3.2c3,0,5.2-1,6.2-2.6s-0.9-1.8-4.4-4.1l-2.7-1.8c-5.5-3.6-7.5-5.5-9.1-9.1L290.5,383.4z"/>
	<path class="st27" d="M297.6,381.4c-0.1-2.6,1.2-21.7,1.2-21.7l-10.8,1.2c2.6,15.2,2.8,20.4,2.5,22.6l0,0c-0.1,0.2-0.1,0.4-0.1,0.6
		c0,3,3.4,4.6,6,6.5c1,0.8,3.7,3.2,6.8,4.2c2,0.7,5.7,1,6.2-0.3c-3.2-2.4-7.5-5.6-10-8.4C298.2,385,297.7,384,297.6,381.4z"/>
	<path class="st6" d="M262.5,273.4c-5.9,12.9,0.2,58.1,0.2,58.1c-0.2,2.1-2.6,6.2-3.5,15.4c-1,10.8,1.9,39.9,1.9,39.9
		c2.1,1.3,4.8,1.4,7,0.1c0,0,7.6-42.7,9-53.5c1.2-9.4,3.5-30.1,3.5-30.1l6.5,30.1c-1,3-1.6,6.1-2.1,9.3c-0.6,6.3,5.6,38.2,5.6,38.2
		c2.3,0.9,4.8,0.9,7-0.1c0,0,2.7-41.1,3.3-48.8c1-12.8-2.5-52.9-4.8-60.5L262.5,273.4z"/>
	<path class="st26" d="M262.5,273.4c-5.9,12.9,0.2,58.1,0.2,58.1c-0.2,2.1-2.6,6.2-3.5,15.4c-1,10.8,1.9,39.9,1.9,39.9
		c2.1,1.3,4.8,1.4,7,0.1c0,0,7.6-42.7,9-53.5c1.2-9.4,3.5-30.1,3.5-30.1l6.5,30.1c-1,3-1.6,6.1-2.1,9.3c-0.6,6.3,5.6,38.2,5.6,38.2
		c2.3,0.9,4.8,0.9,7-0.1c0,0,2.7-41.1,3.3-48.8c1-12.8-2.5-52.9-4.8-60.5L262.5,273.4z"/>
	<path class="st28" d="M280.6,303.3l1.9-11.9c0,0,8.1-1.7,11.8-5.1c-2.5,3-5.8,5.2-9.6,6.4l-2.1,9.2l3.8,27.8L280.6,303.3z"/>
	<path class="st6" d="M265.5,233.4l8,2.1v-16.9l0,0c-4.4-1.1-8,1.4-8,5.7V233.4z"/>
	<path class="st29" d="M265.5,233.4l8,2.1v-16.9l0,0c-4.4-1.1-8,1.4-8,5.7V233.4z"/>
	<path class="st6" d="M281.3,221l-2.9-0.1c-8.8-0.2-15.7-7.8-15.5-16.9l0,0c0-9.9,7.7-18,17.2-18.1l0,0c9.5-0.1,17.3,8,17.4,17.9v1
		C297.3,214,290.1,221.2,281.3,221z"/>
	<path class="st29" d="M281.3,221l-2.9-0.1c-8.8-0.2-15.7-7.8-15.5-16.9l0,0c0-9.9,7.7-18,17.2-18.1l0,0c9.5-0.1,17.3,8,17.4,17.9v1
		C297.3,214,290.1,221.2,281.3,221z"/>
	<path class="st6" d="M267.9,190.1c-0.3-1.2-1.5-1.9-2.6-1.6c-0.1,0-0.1,0-0.2,0l0.8,3c-0.2-0.2-0.4-0.4-0.6-0.5
		c-1-0.6-2.3-0.2-2.9,0.8c0,0.1-0.1,0.1-0.1,0.2l3.9,2.3c0.2-0.4,0.3-0.8,0.3-1.3C267.7,192.6,268.3,191.3,267.9,190.1z"/>
	<path class="st29" d="M267.9,190.1c-0.3-1.2-1.5-1.9-2.6-1.6c-0.1,0-0.1,0-0.2,0l0.8,3c-0.2-0.2-0.4-0.4-0.6-0.5
		c-1-0.6-2.3-0.2-2.9,0.8c0,0.1-0.1,0.1-0.1,0.2l3.9,2.3c0.2-0.4,0.3-0.8,0.3-1.3C267.7,192.6,268.3,191.3,267.9,190.1z"/>
	<path class="st8" d="M272.7,225.5c-2.7,0.4-5.4,0.9-8,1.5c3.1,7.6-1.8,19.3-1.8,19.3l4.6,14.1c-3.2,6.5-5.8,9.7-6.9,15
		c2.9,5.7,23.5,11.1,37,0.8c0,0-0.4-14.4-2.1-22.8c4.4-8.6,3.7-11.1,2.8-14.1c-2.1-6.9-6.3-9.6-11.3-14.5l-3-0.3L272.7,225.5z"/>
	<path class="st7" d="M268,266.1c2.5-2.5,7.8-3.3,7.8-3.3l-4.9-2.8l-5.4-13.1c2.3-4.5,3.4-9.4,3.3-14.4l-3.1-0.8
		c0.4,6.9-2.8,14.5-2.8,14.5l4.6,14.1c-3.2,6.5-5.8,9.7-6.9,15c2,3.9,12.3,7.7,22.9,6.3C269.3,280.9,265.6,268.6,268,266.1z"/>
	<path class="st30" d="M282.4,281.9l0.6-0.1C282.7,281.9,282.5,281.9,282.4,281.9z"/>
	<path class="st27" d="M291.1,194.8c1.7,1.6,3.9,5,3.7,15c-0.1,8.5-2.8,10.6-4.1,11.2s-3.9,0.3-6.4-0.2v3.5c0,0,3.3,3.6,3.1,6
		s-4.7,3.3-7.9,1c-2.3-1.7-4.3-3.8-6-6.1v-10.7c0,0-1.5,1.5-4-0.8c-2-1.9-2.8-5-1.2-6.7c1.4-1.4,3.6-1.3,4.9,0
		c0.3,0.3,0.6,0.7,0.7,1.1c3.8-0.4,7.5-1.5,11-3.2C289,203.3,291.4,199.2,291.1,194.8z"/>
	<path class="st7" d="M284.3,207.9c0,0.6-0.5,1-1,1s-1-0.5-1-1c0-0.5,0.4-1,0.9-1C283.8,206.9,284.3,207.4,284.3,207.9z"/>
	<path class="st31" d="M284.7,215l2.7,0.9c-0.2,0.7-0.9,1.2-1.6,1c0,0-0.1,0-0.1,0C284.9,216.6,284.5,215.8,284.7,215z"/>
	<path class="st7" d="M294,204.1l-2.4-0.8c0.2-0.6,0.8-1,1.4-0.9c0,0,0.1,0,0.1,0C293.8,202.7,294.2,203.4,294,204.1z"/>
	<path class="st6" d="M274,207.4v3.6c0.9,0,1.7-0.7,1.8-1.6c0,0,0-0.1,0-0.1C275.8,208.3,275,207.5,274,207.4z"/>
	<path class="st29" d="M274,207.4v3.6c0.9,0,1.7-0.7,1.8-1.6c0,0,0-0.1,0-0.1C275.8,208.3,275,207.5,274,207.4z"/>
	<path class="st7" d="M293.1,207.6c0,0.6-0.4,1.1-1,1.2c-0.6,0.1-1.2-0.4-1.2-1s0.4-1.2,1-1.2C292.5,206.5,293.1,206.9,293.1,207.6
		C293.1,207.5,293.1,207.6,293.1,207.6z"/>
	<polygon class="st31" points="287.4,206.1 287.4,213.1 290.6,212 	"/>
	<path class="st31" d="M284.4,220.9c-2.6-0.3-8-1.9-8.9-4.1c0.3,1.1,1,2.1,1.9,2.8c1.6,1.4,7,3,7,3L284.4,220.9z"/>
	<path class="st27" d="M252.4,261c0,0,6.4,9.1,7.5,10.3s1.9,0.8,3,0.3c1.5-0.6,2.9-1.1,4.5-1.5c2-0.5,2.4,1.3,0.4,2.6
		c-1.4,0.9-3,1.3-2.3,2.1c1.4,1.2,3,2.2,4.7,2.9c4.7,1.9,4.4,2.8,3.5,4.3c-0.8,1.3-3,4.2-11.4,0.8c-3.5-1.4-8.4-5.4-10.7-8
		c-3.4-3.7-8.6-10.4-8.6-10.4L252.4,261z"/>
	<path class="st3" d="M265.9,226.7c-2.3,0.1-6.7,0.7-12.2,9.8c-4.8,8-12.3,18.8-13.6,22.7c-0.6,1.6,1.6,4.8,4.4,8.1
		c3.8-0.2,7.3-2.8,9.1-4.9c-0.5-1.1-1.1-2.2-1.8-3.2l11.2-12.8c0,0,4.3-3.9,5.2-9C269.2,231.8,268.9,227.5,265.9,226.7z"/>
	<polygon class="st6" points="328.8,243.9 301.1,251.2 293.5,282.6 319.8,274.9 	"/>
	<polygon class="st32" points="328.8,243.9 301.1,251.2 293.5,282.6 319.8,274.9 	"/>
	<g class="st33">
		<path d="M316.3,266.1c0.9,2,3,3.2,5.2,3.1l0.2-0.7L316.3,266.1z"/>
	</g>
	<g class="st33">
		<path d="M320.5,248.9l0.2-1.1c0.1-0.6-1.5-0.6-3.6,0l-4.1,1c-2.1,0.6-4,1.5-4.1,2.1l-0.2,1.1L320.5,248.9z"/>
	</g>
	<path class="st8" d="M322.6,244.9c0.1-0.4-0.6-0.5-1.5-0.2l-1.6,0.4c0,0,0.5-2.3-3.1-1.5c-2,0.3-3.6,1.6-4.4,3.4l-1.7,0.5
		c-1,0.3-1.8,0.8-1.9,1.1l-0.2,0.7l14.3-3.8L322.6,244.9z"/>
	<path class="st8" d="M320.6,246.1c-1.3,0.3-1.9,0.5-2,1.4s-0.3,1.8-0.3,1.8l-6.3,1.7c0,0,0.3-1.3,0.4-1.8s-0.1-0.8-1.1-0.6
		l-0.1-0.4l9.9-2.5L320.6,246.1z"/>
	<path class="st8" d="M320.9,249l0.2-1.1c0.1-0.6-1.5-0.6-3.6,0l-4.1,1c-2.1,0.6-4,1.5-4.1,2.1l-0.2,1.1L320.9,249z"/>
	<path class="st27" d="M325.9,254c0,0-1,3.5-1.3,4.4s-3.4,2.4-5.4,2.9s-4.3,1.2-3.3,4.1c0.9,2.6,4.2,3.2,5.9,3.1s4-1.7,5-4.3
		c1.2-3.4,0.5-6.9,1-8.9S326.9,252.8,325.9,254z"/>
</g>
<g id="freepik--character-1--inject-34">
	<path class="st34" d="M220.9,254.8c-3.8-3.8-5.2-2.3-5.6,1.9c-0.2,1.8-0.6,3.5-1.3,5.1c-0.1-0.9-0.4-1.7-0.7-2.5
		c-0.3-0.9-1.3-1.4-2.3-1.1c-0.4,0.1,0.1,1,0,2.7c-0.1,2.1-0.8,3.2-0.3,5.4c0.2,0.8,0,1.7-0.4,2.4c-2,3.8-8.6,10.8-13.2,15.9
		l-17.6-15.9c-6-5.4-7.9-7.8-13.7-7.4c1.8,0.7,3.5,1.7,4.9,3c2.7,2.3,2.1,15.3,2.1,15.3s19.9,14.3,22,15.6c0.3,0.2,0.6,0.4,0.9,0.5
		c2,1.1,4.5,0.6,6-1.1c4.3-4.9,10.4-14.4,14-19.4c1.6-2.4,3.1-4.9,4.3-7.5C223.7,260.6,223.3,257.2,220.9,254.8z"/>
	<path class="st6" d="M166.6,261c2.8-0.5,5.7,0.2,8,2c3.4,2.6,18,16,18,16s0.4,7.1-7,11.3l-17.9-12.6L166.6,261z"/>
	<path class="st23" d="M166.6,261c2.8-0.5,5.7,0.2,8,2c3.4,2.6,18,16,18,16s0.4,7.1-7,11.3l-17.9-12.6L166.6,261z"/>
	<rect x="141.7" y="421" class="st34" width="7.6" height="13.5"/>
	<polygon class="st34" points="168,420.2 175.6,420.5 175.9,406.2 168,406 	"/>
	<path class="st3" d="M140.7,304.1c0,7.5,1.1,68.1,1.1,68.1c-0.2,2.2-2.1,6.2-1.7,14.5c0.6,11.3,1.3,41,1.3,41
		c2.6,1.3,5.7,1.4,8.4,0.2c0,0,7.2-41.1,8.5-52.4c1.2-9.8,3.2-42.7,3.2-42.7l4.1,38.3c-0.9,4.1-1.2,8.3-0.9,12.5
		c0.4,5.2,2.8,32.2,2.8,32.2c2.7,1.6,5.9,1.8,8.8,0.7c0,0,4.3-40.6,4.4-45.4c0.1-5.4-2.5-67.1-2.5-67.1L140.7,304.1z"/>
	<path class="st7" d="M149.3,430.6v-1.1c0.7,0.3,2.4,7,5.4,9.9c2.4,2.3,5.6,4.9,6.5,7.4s-4.5,4.1-6.8,3.7c-2.6-0.5-7.1-2.4-8.2-4.1
		s-1.7-4.4-2.6-5.7s-3-2.7-3.5-4.2c-0.1-1.4,0-2.8,0.4-4.1c0.4-1.4,0.7-2.9,1.2-2.8v0.9c1.1,0.9,2.4,1.3,3.8,1.3
		C146.6,431.7,149.3,431.4,149.3,430.6z"/>
	<path class="st7" d="M175.6,418.1c0.4,0,0.7,0.6,1.6,1.6c1.3,1.4,2.8,2.5,4.4,3.3c2.8,1.5,8.4,3.8,10.9,4.9
		c1.6,0.7,1.5,2.7-0.1,3.8s-5.5,1.9-10.2,0.8c-2.5-0.6-5.9-3-8-2.9s-6,0.1-7.6-1s-0.9-3.5-0.5-5.5c0.5-2.2,1.1-5.7,1.8-5.5v0.8
		c0.9,1.4,5.6,2,7.6,1L175.6,418.1z"/>
	<path class="st7" d="M161.6,332.8c3.9-1.3,7.5-3.4,10.5-6.3c0,0-2,4-8.1,7.7l1.3,34.2L161.6,332.8z"/>
	<path class="st6" d="M144.6,263c0,0-5.9,0.5-5.5,11.8l1.3,18l-0.1,27c5.6,6.3,30.3,5.9,38.7-0.5c0,0-0.9-31.9-1.4-44.2
		c-0.4-8.7-2.4-13.1-11-14.1l-10.6,0.5L144.6,263z"/>
	<polygon class="st23" points="161.4,268.9 162.8,278.4 166,278.3 162.4,278.9 	"/>
	<path class="st34" d="M125.8,301.8c3.1-24.7,10.1-37,18.8-38.4l-0.6,15.8c-3.6,8.4-6.3,17.2-8.2,26.1c-1.1,6.1-2.4,16.6-2.1,21.8
		c0.1,0.9,0.5,1.8,1.1,2.4c1.7,1.7,2.2,3.2,3.4,5.2c0.9,1.5,1.8,2.1,1.6,2.4c-0.6,0.8-1.8,1-2.6,0.3c-0.9-0.6-1.7-1.4-2.5-2.2
		c-0.1,2.4,0.3,4.7,1.2,6.9c2,4.2,1.7,6.4-3.9,5.1c-3.5-0.8-6-4.5-7-13.1c-0.3-3.2-0.3-6.4-0.2-9.7
		C125.1,316.4,125.2,306.7,125.8,301.8z"/>
	<path class="st6" d="M145.1,262.9c-4.5,0-8.6,0.8-11.8,7c-3.1,6-5.5,18.7-6.7,22.8c0,0,6.5,3.9,12.5,3.8l4.2-14.7
		C143.3,281.9,146.2,275,145.1,262.9z"/>
	<path class="st23" d="M145.1,262.9c-4.5,0-8.6,0.8-11.8,7c-3.1,6-5.5,18.7-6.7,22.8c0,0,6.5,3.9,12.5,3.8l4.2-14.7
		C143.3,281.9,146.2,275,145.1,262.9z"/>
	<path class="st7" d="M154.3,237.5c0.3,6.2,5.5,11.1,11.7,10.8s11.1-5.5,10.8-11.7c-0.2-6-5.2-10.8-11.3-10.8
		C159.2,225.9,154.2,231.2,154.3,237.5z"/>
	<path class="st7" d="M147.1,243.4c0,0,1.7,8.5,2.4,9.9c0.5,0.9,1.2,1.5,2.1,1.8l-0.1-6L147.1,243.4z"/>
	<path class="st7" d="M149.3,231.3c0,0-1.3-0.3-2.6,1.7c-1.1,1.8-1.4,5.7,0.4,10.4l3.3,0.4L149.3,231.3z"/>
	<path class="st34" d="M151.3,243.8c-0.6,0.4-1.6-0.9-2.4-1.8s-3.4-2.1-4.7,0.8s1.1,6.8,3.2,7.5c3.6,1.2,4.1-1.2,4.1-1.2l0.3,13.4
		c4.7,7.3,15.5,7.1,11.6-0.4V258c1.6,0.3,3.2,0.4,4.8,0.3c2.6-0.4,4.3-2.6,5.1-5.5c1.3-4.8,1.8-8.6,0.7-17.9
		c-1.2-10.2-12.6-10.4-18.8-6.3S151.3,243.8,151.3,243.8z"/>
	<path class="st7" d="M151.8,259.5c1.1,2.3,2.7,4.2,4.6,5.8c1.7,1.2,3.6,2,5.6,2.4c-1.7,1.1-3,2.7-4,4.4c-1.2,2.6-9.5-4.6-9.4-9.6
		c0,0,1.3-5.1,3.1-5.4L151.8,259.5z"/>
	<path class="st7" d="M162,267.7c0,0,2.6-1.3,1.4-5.5V258l1.1,0.1c1.3,1.3,2.3,2.9,2.7,4.7c0.3,1.2,0.9,7.1-0.2,8.3
		S164.3,268,162,267.7z"/>
	<path class="st7" d="M151.3,244.9c-0.3,0-1.6-2.1-2.4-2.9c-1.1-1.1,0.3-10.7,0.3-10.7c-0.6-1.7-0.2-3.6,1.1-4.9
		c1.6-1.8,4.1-2,8.5-2.7c1.8-0.2,3.5-0.5,5.2-0.9c1.8-0.7,3.6-1.5,5.2-2.5c0.5-0.3,1.1-0.5,1.8-0.4c0.6,0.2,1,0.7,1.1,1.3
		c0.1,0.6,0.1,1.2,0,1.8c1.2-1.1,3-1,4.1,0.1c1,1.2,1.2,2.8,0.6,4.3c-0.6,1.4-1.7,2.6-3,3.4c-5.5,3.7-12.1,2.7-18.3,2
		c-0.3-0.1-0.6,0-0.9,0.1c-1,0.4-1.2,3.4-1.4,4.3C152.9,239.9,152.4,244.9,151.3,244.9z"/>
	<path class="st7" d="M149.3,231.8l-3.9-2.2c0.5-1.1,1.7-1.6,2.8-1.1c0.1,0,0.1,0.1,0.2,0.1C149.4,229.2,149.8,230.6,149.3,231.8z"
		/>
	<path class="st35" d="M163.4,258c0,0-5.9-1.2-7.9-2.4c-1.2-0.7-2.2-1.7-2.8-2.9c0.3,1.2,0.9,2.4,1.6,3.4c1.5,2,9.1,3.5,9.1,3.5V258
		z"/>
	<path class="st7" d="M161.3,241.9c0,0.7-0.5,1.2-1.2,1.3c0,0,0,0,0,0c-0.7,0-1.2-0.6-1.2-1.3c0-0.6,0.5-1.2,1.2-1.2
		C160.8,240.7,161.3,241.2,161.3,241.9C161.3,241.9,161.3,241.9,161.3,241.9L161.3,241.9z"/>
	<path class="st7" d="M159.3,236.8l-2.5,1.4c-0.4-0.7-0.1-1.6,0.6-2.1c0.7-0.4,1.5-0.1,1.9,0.5C159.2,236.7,159.3,236.8,159.3,236.8
		z"/>
	<path class="st35" d="M162.9,250.7l2.7,1.1c-0.2,0.7-1,1.2-1.7,1c0,0-0.1,0-0.1,0C163,252.3,162.6,251.5,162.9,250.7z"/>
	<path class="st7" d="M173,238.2l-2.6-1.3c0.3-0.7,1-1.1,1.7-0.8c0,0,0.1,0,0.1,0.1C173,236.6,173.3,237.4,173,238.2z"/>
	<path class="st7" d="M171.3,241.9c0.1,0.6-0.4,1.2-1.1,1.3c-0.6,0.1-1.2-0.4-1.3-1.1c0-0.1,0-0.1,0-0.2c0-0.7,0.5-1.2,1.2-1.3
		c0,0,0,0,0,0C170.8,240.7,171.3,241.2,171.3,241.9z"/>
	<polygon class="st35" points="164.6,241 164.8,248.4 169,247.4 	"/>
	<path class="st7" d="M159.5,238.8c-1.6,0-2.9,1.3-2.9,2.9c0,1.6,1.3,2.9,2.9,2.9h0.5c1.6,0,2.9-1.3,2.9-2.9c0-1.6-1.3-2.9-2.9-2.9
		H159.5z M156,241.8c0-1.9,1.5-3.5,3.5-3.5h0.5c1.9,0.3,3.3,2,3,4c-0.2,1.6-1.5,2.8-3,3h-0.5C157.6,245.2,156,243.7,156,241.8z"/>
	<path class="st7" d="M170,238.8c-1.6,0-2.9,1.3-2.9,2.9c0,1.6,1.3,2.9,2.9,2.9h0.5c1.6,0,2.9-1.3,2.9-2.9c0-1.6-1.3-2.9-2.9-2.9
		H170z M166.5,241.8c0-1.9,1.5-3.5,3.5-3.5h0.5c1.9,0.3,3.3,2,3,4c-0.2,1.6-1.5,2.8-3,3H170C168.1,245.2,166.6,243.7,166.5,241.8
		L166.5,241.8z"/>
	<path class="st7" d="M163.4,241.1c0.4-0.6,1.1-0.9,1.8-0.9c0.6-0.1,1.2,0.2,1.6,0.6l0.5-0.4c-0.5-0.6-1.3-0.9-2.1-0.9
		c-0.9,0-1.8,0.5-2.3,1.2L163.4,241.1z"/>
	<rect x="150.4" y="241" class="st7" width="6" height="0.6"/>
</g>
</svg>
