<?xml version="1.0" encoding="utf-8"?>
<!-- Generator: Adobe Illustrator 23.0.0, SVG Export Plug-In . SVG Version: 6.00 Build 0)  -->
<svg version="1.1" id="图层_1" xmlns="http://www.w3.org/2000/svg" xmlns:xlink="http://www.w3.org/1999/xlink" x="0px" y="0px"
	 viewBox="0 0 750 500" style="enable-background:new 0 0 750 500;" xml:space="preserve">
<style type="text/css">
	.st0{fill:#F5F5F5;}
	.st1{fill:#E0E0E0;}
	.st2{fill:#EBEBEB;}
	.st3{fill:#FC9252;}
	.st4{fill:#407BFF;}
	.st5{opacity:0.2;}
	.st6{fill:#FAFAFA;}
	.st7{fill:#263238;}
	.st8{fill:#455A64;}
	.st9{fill:#FFFFFF;}
	.st10{opacity:0.4;}
	.st11{fill:#FFCC00;}
	.st12{fill:#669DFF;}
	.st13{fill:#FF9100;}
	.st14{fill:#FFBE9D;}
	.st15{opacity:0.6;}
	.st16{fill:#28B767;}
	.st17{fill:#FFE7A4;}
	.st18{fill:#EB996E;}
</style>
<g id="freepik--background-complete--inject-35">
	<path class="st0" d="M190.7,436.3c0.4-3.2-4.1-5.9-7.6-6.2c-1.6-0.1-3.3,0.1-4.9-0.4c-3.4-1.2-4.7-5.5-8-6.9
		c-2.5-1-5.3-0.1-7.7,1.1s-4.7,2.7-7.4,2.9c-2.3,0.1-4.8-0.7-6.8,0.4c-1.5,0.8-2.3,2.6-3.7,3.6c-1.4,0.9-3.1,1.4-4.8,1.3
		c-1.7,0-3.4,0.2-5,0.8c-1.5,0.7-2.8,2.3-2.5,4L190.7,436.3z"/>
	<path class="st0" d="M660,149.9c0.7-5.3-6.8-9.7-12.5-10.2c-2.7-0.2-5.5,0.2-8-0.7c-5.5-1.9-7.7-9.1-13.1-11.3
		c-4-1.7-8.7-0.2-12.6,1.8c-3.9,2-7.8,4.4-12.2,4.7c-3.8,0.2-7.9-1.2-11.3,0.7c-2.5,1.4-3.8,4.2-6.1,5.9s-5.2,2-7.9,2.1
		s-5.7,0.2-8.2,1.3s-4.6,3.8-4.1,6.6L660,149.9z"/>
	<path class="st0" d="M105.5,283.2l24.1-3.7c2,13.3-7.1,25.8-20.4,27.8c-13.3,2-25.8-7.1-27.8-20.4c-2-13.3,7.1-25.8,20.4-27.8
		c0,0,0,0,0,0c2.1-0.3,4.2-0.4,6.4-0.1L105.5,283.2z"/>
	<path class="st1" d="M113.3,259l-2.9,18.7l18.4-3.4C128.8,274.3,126.1,263.8,113.3,259z"/>
	<path class="st2" d="M564.5,355.1c2.1,0.1,4.2,0.4,6.3,1l4.1-4.2l8.3,5l-1.9,5.6c1.5,1.5,2.7,3.2,3.7,5.1l5.9-0.1l2.3,9.4l-5.2,2.6
		c-0.1,2.1-0.4,4.2-1,6.3l4.2,4.1l-5,8.3l-5.6-1.9c-1.5,1.5-3.2,2.7-5.1,3.7l0.1,5.9l-9.4,2.3l-2.6-5.2c-2.1-0.1-4.2-0.4-6.3-1
		l-4.1,4.2l-8.3-5l1.9-5.6c-1.5-1.5-2.7-3.2-3.7-5.1l-5.9,0.1l-2.3-9.4l5.2-2.6c0.1-2.1,0.4-4.2,1-6.3l-4.2-4.1l5-8.3l5.6,1.9
		c1.5-1.5,3.2-2.7,5.1-3.7l-0.1-5.9l9.4-2.3L564.5,355.1L564.5,355.1z M562,368.8c-5.6,1.4-9,7-7.6,12.6c1.4,5.6,7,9,12.6,7.6
		c5.6-1.4,9-7,7.6-12.6c0,0,0,0,0,0C573.2,370.9,567.6,367.5,562,368.8z"/>
	<path class="st2" d="M562,368.8c0.8-0.3,1.7-0.4,2.5-0.4c2.4,0,4.7,0.8,6.6,2.3c1.3,1,2.3,2.3,3,3.9c0.8,1.7,1.1,3.7,0.9,5.5
		c-0.1,1-0.4,2-0.8,3c-0.4,1-1,1.9-1.7,2.7c-3,3.6-8,4.8-12.3,3c-2-0.8-3.6-2.2-4.8-4c-1-1.6-1.7-3.4-1.8-5.3c-0.2-4.1,2-8,5.7-9.9
		C560.3,369.2,561.1,368.9,562,368.8c-0.8,0.3-1.6,0.6-2.4,1c-2,1.1-3.6,2.9-4.5,5c-0.6,1.5-0.9,3-0.8,4.6c0.1,1.8,0.7,3.6,1.7,5.1
		c1.1,1.7,2.7,2.9,4.6,3.7c4.1,1.7,8.8,0.5,11.6-2.9c0.7-0.8,1.2-1.6,1.6-2.6c0.4-0.9,0.6-1.8,0.7-2.8c0.4-3.4-1-6.8-3.7-9
		c-1.8-1.5-4-2.3-6.3-2.4C563.7,368.6,562.8,368.7,562,368.8z"/>
	<path class="st2" d="M332.2,387.3c-0.1-0.6-0.2-1.3-0.2-1.9c0-0.8-0.1-1.6-0.3-2.3c-0.1-1.1-0.3-2.1-0.6-3.1
		c-0.7-2.8-1.8-5.5-3.2-8c-1.9-3.3-4.5-6.2-7.5-8.6c-3.6-2.9-7.8-4.9-12.4-5.8c-5.2-1.1-10.6-0.7-15.6,1c-2.7,0.9-5.3,2.2-7.6,3.9
		c-2.5,1.7-4.6,3.8-6.4,6.1c-7.9,10.2-8.3,24.4-0.9,35c0.9,1.2,1.8,2.4,2.8,3.5c1,1,2.1,2,3.3,2.9c2.2,1.8,4.7,3.2,7.4,4.2
		c13.3,5.2,28.4,0.3,36.1-11.7c1.6-2.4,2.8-5.1,3.6-7.9c0.3-1,0.6-2,0.8-3.1c0.2-0.8,0.3-1.5,0.4-2.3
		C331.9,388.6,332,388,332.2,387.3c0.1,0.7,0.1,1.4,0.1,2c0,0.8-0.1,1.6-0.2,2.4c-0.1,1.1-0.3,2.1-0.6,3.2c-0.7,2.9-1.9,5.7-3.5,8.2
		c-4.6,7.6-12.4,12.8-21.1,14.3c-5.5,0.9-11.1,0.3-16.3-1.7c-2.8-1.1-5.4-2.5-7.8-4.4c-1.2-1-2.4-2-3.5-3.1c-1.1-1.2-2.1-2.4-3-3.7
		c-7.9-11.2-7.5-26.2,0.9-36.9c1-1.2,2-2.4,3.1-3.5c1.1-1,2.4-2,3.6-2.9c2.4-1.7,5.1-3.1,8-4c5.3-1.8,10.9-2.1,16.4-0.9
		c8.7,1.9,16.1,7.5,20.4,15.3c1.5,2.6,2.5,5.4,3.1,8.3c0.2,1.1,0.4,2.1,0.5,3.2c0.1,0.8,0.1,1.6,0.1,2.4
		C332.3,386,332.3,386.7,332.2,387.3z"/>
	<path class="st2" d="M326.1,368.3c0.1,0.1-0.5,0.6-1.5,1.4l-2,1.4c-0.4,0.3-0.8,0.6-1.2,0.9l-1.5,0.8c-5.4,3.1-11.6,4.6-17.8,4.5
		l-2.7-0.1l-2.6-0.4c-0.4-0.1-0.8-0.1-1.3-0.2l-1.2-0.3c-0.8-0.2-1.6-0.4-2.3-0.6c-2.6-0.9-5.2-2.1-7.6-3.5
		c-4.1-2.5-6.1-4.7-5.9-4.9s2.4,1.7,6.5,3.8c2.4,1.2,4.9,2.2,7.4,3c0.7,0.2,1.5,0.4,2.3,0.6l1.2,0.3l1.2,0.2l2.5,0.4l2.6,0.1
		c6,0.1,11.9-1.2,17.3-3.9l1.5-0.7c0.5-0.2,0.9-0.5,1.3-0.7l2.1-1.1C325.3,368.5,326,368.2,326.1,368.3z"/>
	<path class="st2" d="M277.4,405.3c-0.1-0.1,0.5-0.6,1.5-1.4l2-1.4c0.4-0.3,0.8-0.6,1.3-0.9l1.5-0.8c5.4-3.1,11.6-4.7,17.9-4.5
		l2.7,0.1l2.6,0.4c0.4,0.1,0.9,0.1,1.3,0.2l1.2,0.3c0.8,0.2,1.6,0.4,2.3,0.6c2.6,0.9,5.2,2.1,7.6,3.5c4.1,2.5,6.1,4.7,5.9,4.9
		s-2.4-1.7-6.5-3.8c-2.4-1.2-4.9-2.3-7.5-3.1c-0.7-0.2-1.5-0.4-2.3-0.6l-1.2-0.3l-1.2-0.2l-2.5-0.4l-2.6-0.1
		c-6-0.1-11.9,1.2-17.3,3.9l-1.5,0.7c-0.5,0.2-0.9,0.5-1.3,0.7l-2.1,1.1C278.2,405.1,277.5,405.4,277.4,405.3z"/>
	<path class="st2" d="M332.1,388c0,0.5-13.6,0.5-30.4,0.1s-30.4-1.1-30.4-1.6s13.6-0.5,30.4-0.1S332.2,387.5,332.1,388z"/>
	<path class="st2" d="M300.3,416.9c-0.5,0-0.5-13.6-0.1-30.4s1.1-30.4,1.6-30.4s0.5,13.6,0.1,30.4S300.8,417,300.3,416.9z"/>
	<path class="st2" d="M300.3,416.9c-0.1,0.2-3.5-2.1-7.3-7.2c-2.3-3-4.1-6.3-5.4-9.9c-1.6-4.4-2.4-9-2.4-13.6
		c0.1-4.7,1.2-9.2,3.1-13.5c1.5-3.4,3.5-6.7,5.9-9.6c4.1-5,7.5-7.1,7.6-7s-2.9,2.7-6.7,7.7c-2.2,2.9-4,6.1-5.5,9.5
		c-1.7,4.1-2.7,8.5-2.8,12.9c-0.1,4.5,0.6,8.9,2.1,13.1c1.3,3.4,2.9,6.7,5,9.7C297.5,414.2,300.5,416.7,300.3,416.9z"/>
	<path class="st2" d="M302.5,356.1c0.1-0.2,3.5,2.1,7.3,7.2c2.3,3,4.1,6.3,5.4,9.9c1.6,4.4,2.4,9,2.4,13.6
		c-0.1,4.7-1.2,9.2-3.1,13.5c-1.6,3.4-3.5,6.7-5.9,9.6c-4.1,5-7.5,7.1-7.6,7s2.9-2.7,6.7-7.7c2.2-2.9,4-6.1,5.5-9.5
		c1.8-4.1,2.7-8.5,2.9-12.9c0.1-4.4-0.6-8.9-2.1-13.1c-1.2-3.4-2.9-6.7-5-9.7C305.3,358.9,302.3,356.3,302.5,356.1z"/>
	
		<rect x="209.5" y="215" transform="matrix(0.9961 -8.854660e-02 8.854660e-02 0.9961 -19.6333 21.7159)" class="st0" width="50.9" height="34.3"/>
	<path class="st1" d="M258.8,212.8c-0.1,0.2-0.3,0.3-0.4,0.5c-0.3,0.4-0.8,0.8-1.3,1.4c-1.2,1.2-2.8,2.9-4.9,4.9L236,235.9l-0.1,0.1
		l-0.2-0.1l-0.4-0.3L216,222.8l-5.8-3.9l-1.6-1.1c-0.2-0.1-0.4-0.3-0.5-0.4c0.2,0.1,0.4,0.2,0.6,0.3l1.6,1l5.9,3.8l19.4,12.8
		l0.4,0.3h-0.3l16.3-16.2l5-4.8l1.4-1.3C258.6,213,258.7,212.8,258.8,212.8z"/>
	<path class="st1" d="M211.1,251.5c-0.1-0.1,3.3-5.1,7.6-11.2s7.9-11,8-10.9s-3.3,5.1-7.6,11.2S211.2,251.6,211.1,251.5z"/>
	<path class="st1" d="M243.5,227.4c0.1-0.1,4.3,4.2,9.3,9.6s9.1,9.9,9,10s-4.3-4.2-9.3-9.6S243.4,227.5,243.5,227.4z"/>
	<path class="st2" d="M258.5,143.7c1.1-8.1-10.4-14.9-19-15.5c-4.1-0.3-8.4,0.3-12.3-1.1c-8.5-2.9-11.8-13.9-20.1-17.3
		c-6.2-2.6-13.3-0.3-19.3,2.7s-11.9,6.8-18.6,7.2c-5.8,0.4-12.1-1.8-17.2,1.1c-3.8,2.1-5.8,6.5-9.3,9s-7.9,3.1-12.1,3.3
		s-8.6,0.3-12.5,2s-7,5.9-6.3,10L258.5,143.7z"/>
	<path class="st2" d="M447.6,451.6c0.7-5.1-6.5-9.3-11.9-9.8c-2.6-0.2-5.3,0.2-7.7-0.7c-5.3-1.9-7.4-8.7-12.6-10.9
		c-3.9-1.6-8.3-0.2-12.1,1.7s-7.5,4.3-11.6,4.5c-3.6,0.2-7.6-1.1-10.8,0.7c-2.4,1.3-3.6,4.1-5.8,5.7s-4.9,1.9-7.6,2.1
		s-5.4,0.2-7.8,1.3s-4.4,3.7-3.9,6.3L447.6,451.6z"/>
	<path class="st0" d="M433.3,103.5c0.7-5.3-6.8-9.7-12.5-10.2c-2.7-0.2-5.5,0.2-8-0.7c-5.5-1.9-7.7-9.1-13.1-11.4
		c-4-1.7-8.7-0.2-12.6,1.8s-7.8,4.4-12.1,4.7c-3.8,0.3-7.9-1.2-11.3,0.7c-2.5,1.4-3.8,4.3-6.1,5.9s-5.1,2-7.9,2.2s-5.6,0.2-8.2,1.3
		s-4.6,3.8-4.1,6.6L433.3,103.5z"/>
</g>
<g id="freepik--Sheet--inject-35">
	<path class="st3" d="M386.4,239.6l-32.3,17c-2.2,1.2-5,0.3-6.2-1.9L324.5,210c-1.2-2.2-0.3-5,1.9-6.2c0,0,0,0,0,0l20.5-10.8l24.4,8
		l17,32.4C389.5,235.7,388.6,238.4,386.4,239.6z"/>
	<path class="st4" d="M346.9,193.1l6.6,12.6c1.1,2.1,3.7,2.9,5.7,1.8c0,0,0,0,0,0l12.1-6.4L346.9,193.1z"/>
	<g class="st5">
		<path d="M354.2,206.6c1,2,3.3,2.9,5.4,2.3l0.5-0.1c1.7-0.6,13.1-4.2,13-4.4s-1.8-3.4-1.8-3.4l-12.1,6.4
			C359.3,207.4,356.1,208.9,354.2,206.6z"/>
	</g>
	<g>
		<g>
			<path class="st3" d="M346.9,193.1l6.6,12.6c1.1,2.1,3.7,2.9,5.7,1.8c0,0,0,0,0,0l12.1-6.4L346.9,193.1z"/>
		</g>
	</g>
	<path class="st6" d="M350.5,206.5c0.1,0.2-3.2,2.1-7.3,4.2s-7.5,3.8-7.6,3.6s3.2-2,7.3-4.2S350.4,206.4,350.5,206.5z"/>
	<path class="st6" d="M363.9,208.6c0.1,0.2-5.4,3.2-12.1,6.8s-12.4,6.3-12.4,6.2s5.3-3.2,12.1-6.8S363.8,208.4,363.9,208.6z"/>
	<path class="st6" d="M369.2,213.3c0.1,0.2-5.9,3.4-13.2,7.3s-13.5,6.9-13.5,6.8s5.8-3.4,13.2-7.3S369.1,213.2,369.2,213.3z"/>
	<path class="st6" d="M372.2,218.9c0.1,0.2-5.8,3.4-13.2,7.3s-13.5,6.9-13.5,6.8s5.9-3.4,13.2-7.3S372.1,218.8,372.2,218.9z"/>
	<path class="st6" d="M375.1,224.5c0.1,0.2-5.9,3.4-13.2,7.3s-13.5,6.9-13.5,6.8s5.8-3.4,13.2-7.3S375,224.4,375.1,224.5z"/>
	<path class="st6" d="M378,230.1c0.1,0.2-5.8,3.4-13.2,7.3s-13.5,6.9-13.5,6.8s5.9-3.4,13.3-7.3S378,230,378,230.1z"/>
</g>
<g id="freepik--Stopwatch--inject-35">
	
		<rect x="263.8" y="274.5" transform="matrix(0.4484 -0.8938 0.8938 0.4484 -101.2447 390.1295)" class="st7" width="3.3" height="5.1"/>
	<path class="st8" d="M266,273.6l-3,6l-4.9-2.5c0.5-2.2,1.5-4.3,3-6L266,273.6z"/>
	<path class="st7" d="M263.5,278.6c-0.9-0.2-1.8-0.6-2.6-1.1c-0.9-0.4-1.7-0.9-2.5-1.5c0.9,0.3,1.8,0.6,2.7,1.1
		C261.9,277.5,262.8,278,263.5,278.6z"/>
	<path class="st7" d="M264.1,277.5c-0.9-0.3-1.8-0.7-2.7-1.2c-0.9-0.4-1.7-0.9-2.5-1.5c1,0.2,1.9,0.6,2.7,1.2
		C262.5,276.3,263.4,276.8,264.1,277.5z"/>
	<path class="st7" d="M264.9,275.9c-0.9-0.3-1.9-0.7-2.7-1.2c-0.9-0.4-1.7-0.9-2.5-1.5c1,0.3,1.9,0.7,2.7,1.2
		C263.3,274.8,264.1,275.3,264.9,275.9z"/>
	<path class="st7" d="M265.6,274.5c-0.9-0.2-1.8-0.6-2.6-1.1c-0.9-0.4-1.7-0.9-2.5-1.5c0.9,0.2,1.8,0.6,2.6,1.1
		C264,273.4,264.8,273.9,265.6,274.5z"/>
	
		<rect x="300.5" y="260.3" transform="matrix(0.4008 -0.9162 0.9162 0.4008 -58.4156 434.6001)" class="st7" width="5.1" height="3.3"/>
	<path class="st8" d="M306.5,262.4l-6.2-2.7l2.2-5c2.3,0.3,4.4,1.3,6.2,2.7L306.5,262.4z"/>
	<path class="st7" d="M301.4,260.1c0.2-0.9,0.5-1.9,1-2.7c0.3-0.9,0.8-1.8,1.3-2.6c-0.2,0.9-0.5,1.9-1,2.7
		C302.4,258.5,302,259.4,301.4,260.1z"/>
	<path class="st7" d="M302.6,260.6c0.2-1,0.6-1.9,1.1-2.7c0.4-0.9,0.8-1.8,1.4-2.6c-0.2,1-0.5,1.9-1,2.8
		C303.7,259,303.2,259.9,302.6,260.6z"/>
	<path class="st7" d="M304.2,261.3c0.2-1,0.6-1.9,1.1-2.8c0.4-0.9,0.8-1.8,1.4-2.6c-0.2,1-0.6,1.9-1.1,2.8
		C305.2,259.7,304.7,260.5,304.2,261.3z"/>
	<path class="st7" d="M305.6,262c0.5-1.9,1.3-3.6,2.3-5.3c-0.2,0.9-0.5,1.9-1,2.7C306.6,260.4,306.2,261.2,305.6,262z"/>
	
		<rect x="279.4" y="258.4" transform="matrix(0.9227 -0.3854 0.3854 0.9227 -79.0172 128.6442)" class="st7" width="3.9" height="6"/>
	<path class="st8" d="M284.6,258.8l-7.4,3.1l-2.5-6c2.1-1.7,4.7-2.7,7.4-3.1L284.6,258.8z"/>
	<path class="st7" d="M282.2,252.8c-1.8,2.2-4.6,3.4-7.5,3.1c1.4-0.2,2.7-0.5,4-1C279.9,254.3,281.1,253.6,282.2,252.8z"/>
	<path class="st7" d="M279.7,260.8c-0.5-0.8-1-1.6-1.3-2.5c-0.4-0.8-0.7-1.7-0.9-2.6c0.5,0.8,1,1.6,1.3,2.5
		C279.2,259,279.5,259.9,279.7,260.8z"/>
	<path class="st7" d="M281.1,260.3c-0.5-0.8-1-1.6-1.3-2.5c-0.4-0.8-0.7-1.7-0.9-2.7c0.5,0.8,1,1.6,1.3,2.5
		C280.6,258.4,280.9,259.3,281.1,260.3z"/>
	<path class="st7" d="M282.5,259.6c-0.5-0.8-1-1.6-1.3-2.5c-0.4-0.8-0.7-1.7-0.9-2.7c0.5,0.8,1,1.6,1.3,2.5
		C282,257.8,282.3,258.7,282.5,259.6z"/>
	<path class="st7" d="M283.6,259.2c-0.6-0.8-1-1.8-1.4-2.7c-0.5-0.9-0.8-1.9-1-2.9c0.6,0.8,1,1.8,1.3,2.7
		C283.1,257.2,283.4,258.2,283.6,259.2z"/>
	<path class="st7" d="M278.3,261.3c-0.6-0.8-1-1.8-1.4-2.7c-0.5-0.9-0.8-1.9-1-2.9C277,257.5,277.8,259.4,278.3,261.3L278.3,261.3z"
		/>
	<circle class="st8" cx="292.2" cy="288.6" r="28.1"/>
	<circle class="st6" cx="292.1" cy="288.4" r="23.6"/>
	<path class="st7" d="M313.9,279.3c-0.1-0.1-0.1-0.2-0.2-0.3l-0.5-1l-0.4-0.7c-0.1-0.3-0.3-0.5-0.5-0.9c-0.4-0.7-0.9-1.4-1.4-2
		c-1.4-1.8-3-3.4-4.8-4.8c-2.4-1.8-5.2-3.1-8.1-3.8c-4.5-1.2-9.3-1-13.7,0.6c-0.5,0.2-1,0.3-1.4,0.5l-1.4,0.7
		c-0.2,0.1-0.5,0.2-0.7,0.4l-0.7,0.4c-0.5,0.3-0.9,0.5-1.4,0.9c-0.9,0.6-1.7,1.3-2.5,2c-0.8,0.8-1.6,1.6-2.3,2.4
		c-0.4,0.4-0.7,0.9-1,1.4c-0.3,0.5-0.7,0.9-0.9,1.4c-0.6,1-1.1,2-1.6,3.1c-0.4,1.1-0.8,2.2-1.1,3.4c-0.6,2.4-0.8,4.8-0.6,7.3
		c0.2,2.5,0.8,5,1.7,7.3c1,2.3,2.4,4.5,4,6.4c1.6,1.8,3.5,3.4,5.6,4.7c1,0.6,2.1,1.2,3.2,1.6c1.1,0.4,2.2,0.8,3.3,1.1
		c0.6,0.2,1.1,0.3,1.7,0.4c0.6,0.1,1.1,0.2,1.7,0.2c1.1,0.1,2.2,0.1,3.3,0.1c1.1,0,2.2-0.2,3.2-0.4c0.5-0.1,1-0.3,1.6-0.4l0.8-0.2
		c0.3-0.1,0.5-0.2,0.8-0.3l1.5-0.5c0.5-0.2,0.9-0.4,1.4-0.6c0.9-0.4,1.8-0.9,2.6-1.5c5.6-3.7,9.4-9.6,10.4-16.3
		c0.3-2.3,0.3-4.5,0-6.8c-0.1-0.8-0.3-1.6-0.5-2.4c-0.1-0.4-0.2-0.7-0.2-1l-0.3-0.8l-0.4-1.1C314,279.4,314,279.3,313.9,279.3
		c0,0,0.1,0.1,0.2,0.3l0.4,1.1c0.1,0.2,0.2,0.5,0.3,0.8s0.2,0.6,0.3,1c0.2,0.8,0.4,1.6,0.5,2.5c0.4,2.3,0.4,4.6,0.1,6.8
		c-0.9,6.8-4.7,12.8-10.4,16.5c-0.8,0.6-1.7,1-2.6,1.5c-0.5,0.2-0.9,0.5-1.4,0.6l-1.5,0.5c-0.3,0.1-0.5,0.2-0.8,0.3l-0.8,0.2
		c-0.5,0.1-1,0.3-1.6,0.4c-1.1,0.2-2.2,0.3-3.3,0.4c-1.1,0.1-2.3,0-3.4-0.1c-0.6-0.1-1.1-0.2-1.7-0.2c-0.6-0.1-1.1-0.2-1.7-0.4
		c-2.3-0.5-4.6-1.5-6.6-2.7c-2.1-1.3-4-2.9-5.7-4.7c-3.4-3.9-5.4-8.7-5.8-13.9c-0.2-2.5,0-5,0.6-7.4c0.5-2.3,1.5-4.6,2.7-6.6
		c0.3-0.5,0.6-1,0.9-1.5c0.4-0.5,0.7-1,1-1.4c1.4-1.7,3.1-3.2,4.9-4.5c0.5-0.3,0.9-0.6,1.4-0.9l0.7-0.4c0.2-0.1,0.5-0.2,0.7-0.4
		l1.4-0.7c0.5-0.2,1-0.4,1.5-0.5c1-0.3,1.9-0.6,2.9-0.8c6.7-1.4,13.6,0.1,19.1,4.2c1.8,1.4,3.5,3,4.8,4.9c0.5,0.7,1,1.4,1.4,2.1
		c0.2,0.3,0.4,0.6,0.5,0.9l0.4,0.8c0.2,0.4,0.4,0.8,0.5,1S313.9,279.3,313.9,279.3z"/>
	<path class="st7" d="M310.6,280.3c-1.2,0.6-2.4,1-3.7,1.3c1-0.8,2.2-1.5,3.4-2c1.9-1,3.6-1.5,3.7-1.3S312.6,279.5,310.6,280.3z"/>
	<path class="st7" d="M311,295.7c-1.3-0.4-2.4-0.9-3.5-1.7c1.3,0.1,2.6,0.5,3.8,1c2,0.7,3.6,1.4,3.5,1.7S313,296.4,311,295.7z"/>
	<path class="st7" d="M300.5,306.8c-0.6-1.2-1.1-2.4-1.3-3.7c0.8,1,1.5,2.1,2,3.4c1,1.9,1.6,3.6,1.3,3.7S301.3,308.8,300.5,306.8z"
		/>
	<path class="st7" d="M285.1,307.4c0.4-1.3,0.9-2.5,1.6-3.6c-0.1,1.3-0.4,2.6-0.9,3.8c-0.7,2-1.4,3.6-1.6,3.6
		S284.4,309.4,285.1,307.4z"/>
	<path class="st7" d="M273.8,297c1.1-0.6,2.4-1.1,3.7-1.4c-1,0.8-2.1,1.5-3.4,2c-1.9,1-3.6,1.6-3.7,1.4S271.9,297.9,273.8,297z"/>
	<path class="st7" d="M273.1,281.6c1.3,0.4,2.5,0.9,3.6,1.6c-1.3-0.1-2.6-0.4-3.8-0.9c-2.1-0.6-3.7-1.4-3.6-1.6
		S271.1,280.9,273.1,281.6z"/>
	<path class="st7" d="M283.4,270.2c0.6,1.1,1.1,2.4,1.4,3.6c-0.9-1-1.6-2.1-2.1-3.3c-1-1.9-1.6-3.5-1.4-3.6S282.5,268.3,283.4,270.2
		z"/>
	<path class="st7" d="M298.7,269.4c-0.3,1.3-0.9,2.5-1.6,3.6c0.1-1.3,0.4-2.6,0.9-3.8c0.6-2.1,1.3-3.7,1.6-3.6
		S299.4,267.3,298.7,269.4z"/>
	<path class="st7" d="M310.2,279.5c-1.1,0.7-2.4,1.2-3.6,1.5c1-0.9,2.1-1.6,3.3-2.1c1.9-1,3.5-1.7,3.6-1.5S312.2,278.6,310.2,279.5z
		"/>
	<path class="st9" d="M273.8,268.4c-0.3,0.4-0.6,0.7-0.9,1c-0.8,0.9-1.6,1.8-2.4,2.8c-4.9,6.5-6.6,14.8-4.7,22.8
		c0.3,1.2,0.6,2.4,1,3.5c0.2,0.4,0.3,0.8,0.5,1.3c-0.1-0.1-0.1-0.2-0.2-0.3c-0.1-0.2-0.3-0.5-0.4-0.9c-0.5-1.1-0.9-2.3-1.2-3.5
		c-2.1-8-0.3-16.5,4.8-23c0.8-1,1.6-1.9,2.5-2.7c0.3-0.3,0.6-0.5,0.7-0.7S273.8,268.4,273.8,268.4z"/>
	<path class="st9" d="M280.5,264c-0.7,0.6-1.5,1.1-2.4,1.5c-0.8,0.5-1.6,1-2.5,1.3c0.7-0.7,1.4-1.2,2.3-1.6
		C278.7,264.6,279.6,264.2,280.5,264z"/>
	<g class="st10">
		<path d="M280.2,308.8c0,0,18.8,13.1,32.5-3.3c14.3-17.2-4.9-34.8-4.9-34.8s15.9,13.8,2.8,32.6c-3.3,4.7-8.1,6.7-11.9,7.9
			C288.8,314.2,280.2,308.8,280.2,308.8z"/>
	</g>
	<path class="st1" d="M293.4,274.3c1.4,3.2,2.7,6.4,3.7,9.7c0.4,1.2,0.7,2.4,0.7,3.7c0.1,1.3-0.4,2.5-1.2,3.5
		c-0.9,1-2.3,1.2-3.4,0.7L293.4,274.3z"/>
	<polygon class="st8" points="290.9,286.9 293.3,270.3 294.8,287.3 292.7,289.1 	"/>
	<g class="st10">
		<polygon points="293.3,270.3 293.1,286.4 294.8,287.3 		"/>
	</g>
	<path class="st6" d="M295.2,288c0.6,1.4-0.1,3-1.5,3.6c-1.4,0.6-3-0.1-3.6-1.5c-0.6-1.4,0.1-3,1.5-3.6c0,0,0,0,0,0
		C293,285.9,294.6,286.6,295.2,288z"/>
	<path class="st7" d="M295.2,288c0,0-0.1-0.2-0.4-0.5c-0.4-0.5-0.9-0.8-1.5-0.9c-1.4-0.3-2.8,0.5-3.2,1.9c-0.3,1.4,0.5,2.8,1.9,3.2
		c0.2,0.1,0.5,0.1,0.7,0.1c0.9,0,1.7-0.5,2.1-1.3c0.3-0.5,0.5-1.1,0.4-1.7C295.3,288.2,295.2,288,295.2,288c0.1,0.2,0.2,0.4,0.3,0.6
		c0.1,0.6,0,1.3-0.3,1.9c-0.5,0.9-1.4,1.4-2.4,1.5c-1.6,0.1-3-1.2-3.1-2.8c0-0.9,0.3-1.7,1-2.3c0.7-0.7,1.8-0.9,2.7-0.6
		c0.6,0.2,1.2,0.6,1.5,1.1C295.1,287.5,295.2,287.8,295.2,288z"/>
	<path class="st8" d="M294.6,288.3c0.4,1,0,2.3-1.1,2.7c-1,0.4-2.3,0-2.7-1.1c-0.4-1,0-2.3,1.1-2.7c0,0,0,0,0,0
		C292.9,286.7,294.1,287.2,294.6,288.3z"/>
</g>
<g id="freepik--Video--inject-35">
	<path class="st11" d="M255.5,358.2c0.5-0.2,0.9-0.4,1.2-0.8c0.4-0.5,0.6-1.1,0.6-1.7c0-0.4-0.1-0.8-0.2-1.1
		c-0.1-0.4-0.2-0.9-0.3-1.3c-0.9-3.7-2.3-9.1-3.9-15.7c-0.4-1.7-0.8-3.4-1.3-5.2c-0.2-0.9-0.4-1.8-0.7-2.8c-0.1-0.5-0.2-0.9-0.4-1.4
		c-0.2-0.4-0.5-0.8-0.9-1c-0.4-0.2-0.9-0.4-1.3-0.3c-0.5,0.1-1,0.2-1.5,0.3l-3.1,0.8l-6.4,1.6L209,337c-1.2,0.3-1.9,1.5-1.7,2.7
		c0.3,1.3,0.6,2.5,0.9,3.7c0.6,2.5,1.2,4.9,1.8,7.3c1.2,4.8,2.3,9.4,3.3,13.8l0.4,1.6c0.1,0.5,0.3,1,0.7,1.3
		c0.4,0.3,0.8,0.6,1.3,0.6c0.5,0,1-0.1,1.5-0.2l6-1.5l10.8-2.8l15.7-4l4.3-1l1.1-0.3L255.5,358.2l-0.4,0.1l-1.1,0.3l-4.2,1.1
		l-15.6,4.1l-10.8,2.8l-6,1.6c-0.5,0.2-1.1,0.3-1.7,0.3c-0.6-0.1-1.2-0.3-1.6-0.8c-0.4-0.4-0.7-1-0.8-1.5c-0.1-0.5-0.3-1.1-0.4-1.6
		l-3.4-13.8l-1.8-7.3c-0.3-1.2-0.6-2.5-0.9-3.8c-0.3-1.5,0.6-2.9,2.1-3.3l28.4-7.3l6.4-1.6l3.1-0.8c0.5-0.2,1-0.3,1.6-0.3
		c0.6,0,1.1,0.1,1.6,0.4c0.5,0.3,0.9,0.7,1.1,1.2c0.2,0.5,0.3,1,0.4,1.5c0.2,0.9,0.4,1.9,0.7,2.8c0.4,1.8,0.8,3.5,1.3,5.2
		c1.6,6.6,2.8,12,3.7,15.7c0.1,0.5,0.2,0.9,0.3,1.3c0.1,0.4,0.2,0.8,0.2,1.2c0,0.6-0.3,1.3-0.7,1.7c-0.3,0.3-0.6,0.5-0.9,0.7
		C255.8,358.1,255.6,358.2,255.5,358.2z"/>
	<polygon class="st11" points="233.2,344.4 239.3,346.2 234.7,350.8 230.1,355.3 228.6,348.9 227.1,342.6 	"/>
</g>
<g id="freepik--Photos--inject-35">
	
		<rect x="144.3" y="301.8" transform="matrix(0.9684 -0.2496 0.2496 0.9684 -73.5448 50.1132)" class="st2" width="33.1" height="26.5"/>
	<path class="st7" d="M173.7,297.1h-0.2l-0.4,0.1l-1.7,0.5l-6.5,1.7l-23.1,6l0.1-0.1c2,7.6,4.3,16.3,6.7,25.5l0,0l-0.1-0.1l32-8.3
		l-0.1,0.1c-2-7.7-3.6-14.1-4.8-18.5c-0.6-2.2-1-4-1.3-5.2l-0.4-1.4C173.8,297.2,173.8,297,173.7,297.1l0.1,0.4
		c0.1,0.3,0.2,0.8,0.4,1.4l1.4,5.2c1.2,4.5,2.9,10.9,4.9,18.6v0.1h-0.1l-32,8.3h-0.1v-0.1l0,0l-6.6-25.6v-0.1h0.1l23.1-6l6.5-1.7
		l1.7-0.4l0.4-0.1L173.7,297.1z"/>
	
		<rect x="145.7" y="302.5" transform="matrix(0.9678 -0.2519 0.2519 0.9678 -73.9201 50.698)" class="st12" width="30.7" height="23.1"/>
	<polygon class="st4" points="149.1,329.1 155.9,312.5 164.6,319.5 167.7,313.8 178.8,321.4 	"/>
	<path class="st4" d="M164.6,308.4c0.3,1.3-0.5,2.6-1.7,2.9c-1.3,0.3-2.6-0.5-2.9-1.7c-0.3-1.3,0.4-2.6,1.7-2.9
		C162.9,306.4,164.2,307.1,164.6,308.4C164.6,308.4,164.6,308.4,164.6,308.4z"/>
	<g class="st5">
		<polygon points="149.1,329.1 155.9,312.5 164.6,319.5 167.7,313.8 178.8,321.4 		"/>
	</g>
	<g class="st5">
		<path d="M164.6,308.4c0.3,1.3-0.5,2.6-1.7,2.9c-1.3,0.3-2.6-0.5-2.9-1.7c-0.3-1.3,0.4-2.6,1.7-2.9
			C162.9,306.4,164.2,307.1,164.6,308.4C164.6,308.4,164.6,308.4,164.6,308.4z"/>
	</g>
	
		<rect x="159" y="276.7" transform="matrix(0.9975 -7.027879e-02 7.027879e-02 0.9975 -20.3964 13.6618)" class="st2" width="49.9" height="39.9"/>
	<path class="st7" d="M207.5,275h-0.2l-0.7,0l-2.7,0.2l-10.2,0.8l-36,2.6l0.1-0.1c0.8,11.9,1.8,25.4,2.8,39.8l0,0l-0.1-0.1l49.8-3.5
		l-0.1,0.1c-0.8-12-1.5-21.9-2-28.9c-0.2-3.5-0.4-6.2-0.5-8.1c-0.1-0.9-0.1-1.6-0.1-2.1S207.4,275,207.5,275l0,0.7
		c0,0.5,0.1,1.2,0.2,2.1c0.1,1.9,0.3,4.6,0.6,8c0.5,7,1.2,16.9,2.1,28.9v0.1h-0.1l-49.8,3.5h-0.1v-0.1l0,0c-1-14.4-2-28-2.8-39.8
		v-0.1h0.1l36-2.5l10.2-0.7l2.7-0.2h0.7L207.5,275z"/>
	
		<rect x="160.7" y="279.3" transform="matrix(0.9975 -7.027879e-02 7.027879e-02 0.9975 -20.3963 13.6586)" class="st12" width="46.4" height="34.9"/>
	<polygon class="st4" points="162,315.7 176.6,293 187.6,305.8 193.9,298.1 208.3,312.5 	"/>
	<path class="st4" d="M190.7,289.3c0.1,2-1.4,3.8-3.4,3.9c-2,0.1-3.8-1.4-3.9-3.4s1.4-3.8,3.4-3.9c0,0,0,0,0,0
		C188.8,285.8,190.6,287.3,190.7,289.3z"/>
	<g class="st5">
		<polygon points="162,315.7 176.6,293 187.6,305.8 193.9,298.1 208.3,312.5 		"/>
	</g>
	<g class="st5">
		<path d="M190.7,289.3c0.1,2-1.4,3.8-3.4,3.9c-2,0.1-3.8-1.4-3.9-3.4s1.4-3.8,3.4-3.9c0,0,0,0,0,0
			C188.8,285.8,190.6,287.3,190.7,289.3z"/>
	</g>
</g>
<g id="freepik--light-bulb--inject-35">
	<path class="st11" d="M112.3,336c-2.4-7.8-10.7-12.2-18.5-9.8c-7.8,2.4-12.2,10.7-9.8,18.5c1.7,5.5,6.4,9.6,12.1,10.3l1.1,3.6
		l12.4-3.9c0,0-0.5-2-1.1-3.8C112.5,347,113.9,341.3,112.3,336z"/>
	<path class="st7" d="M105.1,356.1v-0.2c0-0.1,0-0.3-0.1-0.5c-0.1-0.5-0.2-1.1-0.3-2s-0.3-2-0.4-3.3c-0.1-1.4-0.1-2.9,0.1-4.3
		c0.1-0.8,0.3-1.7,0.5-2.5c0.1-0.4,0.4-0.8,0.7-1.2c0.4-0.3,0.9-0.5,1.3-0.4c0.3,0.1,0.5,0.2,0.6,0.4c0.2,0.2,0.2,0.5,0.2,0.7
		c-0.1,0.5-0.4,1-0.8,1.3c-1.8,1.3-4.4,0.9-5.7-0.9c0,0,0-0.1-0.1-0.1c-0.3-0.5-0.6-1-0.6-1.6c0-0.6,0.4-1.2,1-1.4
		c0.3-0.1,0.6,0,0.9,0.3c0.2,0.2,0.4,0.5,0.4,0.8c0,0.6-0.2,1.2-0.6,1.7c-0.7,1.1-1.8,1.8-3,2c-1.2,0.2-2.5-0.3-3.4-1.2
		c-0.4-0.4-0.7-1.1-0.6-1.7c0-0.3,0.2-0.6,0.4-0.8c0.3-0.2,0.6-0.3,0.9-0.2c0.3,0.1,0.6,0.2,0.8,0.4c0.2,0.2,0.4,0.5,0.5,0.8
		c0.2,0.5,0.3,1.1,0.3,1.7c0,1.1-0.5,2.2-1.3,3c-0.7,0.8-1.7,1.2-2.8,1.3c-0.5,0.1-1,0-1.5-0.3c-0.5-0.3-0.7-0.8-0.5-1.3
		c0.1-0.2,0.3-0.4,0.5-0.5c0.2-0.1,0.5-0.1,0.7-0.1c0.5,0.1,0.9,0.3,1.2,0.7c0.6,0.7,1.1,1.3,1.6,1.9c2,2.5,3.6,4.6,4.6,6
		c0.5,0.7,0.9,1.3,1.2,1.7l0.3,0.5l0.1,0.1c0,0-0.1-0.1-0.1-0.1l-0.3-0.4c-0.3-0.4-0.7-1-1.2-1.7c-1.1-1.4-2.6-3.5-4.6-6
		c-0.5-0.6-1-1.3-1.6-1.9c-0.3-0.3-0.7-0.6-1.1-0.6c-0.4-0.1-0.9,0.1-1.1,0.5c-0.1,0.4,0.1,0.9,0.4,1.1c0.4,0.2,0.9,0.3,1.4,0.3
		c1-0.1,2-0.5,2.7-1.3c1.2-1.2,1.5-2.9,0.9-4.5c-0.2-0.5-0.6-0.9-1.1-1.1c-0.3-0.1-0.5,0-0.8,0.2c-0.2,0.2-0.3,0.4-0.4,0.7
		c0,0.6,0.2,1.1,0.6,1.5c0.8,0.9,2,1.3,3.2,1.1c1.2-0.2,2.2-0.9,2.9-1.9c0.3-0.5,0.5-1,0.5-1.6c0-0.3-0.1-0.5-0.3-0.7
		c-0.2-0.2-0.4-0.3-0.7-0.2c-0.3,0.1-0.5,0.2-0.6,0.5c-0.1,0.2-0.2,0.5-0.2,0.8c0,0.5,0.2,1.1,0.6,1.5c0.6,0.9,1.6,1.5,2.6,1.7
		c1,0.2,2-0.1,2.9-0.7c0.4-0.3,0.7-0.7,0.8-1.2c0.1-0.5-0.2-0.9-0.7-1c-0.4-0.1-0.9,0-1.2,0.3c-0.3,0.3-0.5,0.7-0.7,1.1
		c-0.2,0.8-0.4,1.6-0.5,2.5c-0.2,1.4-0.2,2.9-0.1,4.3c0.1,1.3,0.2,2.4,0.4,3.2s0.3,1.6,0.3,2l0.1,0.5L105.1,356.1z"/>
	<path class="st7" d="M109.4,357.3l-10.6,3.3c-0.4,0.1-0.9-0.1-1-0.5l0,0c-0.1-0.4,0.1-0.9,0.6-1l10.6-3.3c0.4-0.1,0.9,0.1,1,0.5
		l0,0C110.1,356.7,109.8,357.2,109.4,357.3z"/>
	<path class="st7" d="M109.6,358L99,361.3c-0.5,0.1-0.7,0.6-0.6,1s0.6,0.7,1,0.6c0,0,0.1,0,0.1,0l1.2-0.4l2.4,2.4
		c0.3,0.3,0.7,0.4,1.1,0.3l3.8-1.2c0.4-0.1,0.7-0.4,0.7-0.8l0.6-3.4l0.8-0.3c0.4-0.1,0.7-0.6,0.5-1C110.5,358.1,110,357.9,109.6,358
		L109.6,358z"/>
	<g class="st5">
		<path class="st9" d="M86.3,334.2c0.6-1,1.3-2,2.2-2.8c0.6-0.5,1.3-1,2-1.3c0.5-0.2,0.8-0.3,0.9-0.2s-0.8,1-2,2.4
			c-3.1,3.6-3.8,8.7-1.8,13.1c0.7,1.7,1.5,2.6,1.3,2.8s-0.4,0-0.8-0.4c-0.6-0.5-1.1-1.1-1.5-1.8c-0.7-1-1.2-2.1-1.4-3.3
			c-0.4-1.4-0.5-2.9-0.3-4.4"/>
	</g>
	<g class="st5">
		<path class="st9" d="M95,329.5c-0.9,0.3-1.8,0.3-2-0.2c-0.1-0.2,0-0.5,0.2-0.8c0.3-0.3,0.8-0.6,1.2-0.7c0.5-0.2,1-0.2,1.4-0.1
			c0.4,0.1,0.6,0.3,0.7,0.5"/>
	</g>
	<path class="st8" d="M108.6,363.6c0,0-0.3,0-0.8,0c-0.6,0-1.3,0.1-1.9,0.3c-0.6,0.2-1.2,0.5-1.7,0.9c-0.4,0.3-0.6,0.5-0.6,0.5
		c0.1-0.2,0.3-0.4,0.6-0.6c0.5-0.4,1.1-0.8,1.7-1c0.6-0.2,1.3-0.3,1.9-0.3C108.1,363.4,108.3,363.5,108.6,363.6z"/>
	<path class="st8" d="M109.3,359.9c0,0-1.9,0.7-4.3,1.4s-4.3,1.3-4.3,1.3s1.9-0.7,4.3-1.4S109.3,359.8,109.3,359.9z"/>
	<path class="st8" d="M109.1,361.4c-0.3,0.2-0.7,0.3-1,0.4c-0.6,0.2-1.5,0.6-2.5,0.9s-1.9,0.6-2.5,0.8c-0.4,0.1-0.7,0.2-1.1,0.3
		c0.3-0.1,0.7-0.3,1-0.4l2.5-0.8l2.5-0.8C108.3,361.5,108.7,361.4,109.1,361.4z"/>
</g>
<g id="freepik--Character--inject-35">
	<path class="st4" d="M427.9,269.7c-11-10.2-30.5-9-40.2,2.5c-3.8,4.5-6.4,10.4-11.6,13.2c-8,4.2-17.8-1.1-26.8-0.3
		c-10.6,0.9-19.3,11.7-18,22.2c0.6,4.8,2.9,9.8,0.6,14.1c-2.9,5.4-11.1,5.6-14.6,10.7c-3.1,4.5-0.7,11.3,3.9,14.4s10.4,3.5,15.9,3.3
		s11.1-1,16.5,0.2c5.9,1.3,11,5,16.7,7.2c13.6,5.4,29.5,2.4,42-5.1s22.3-18.9,30.8-30.8"/>
	<g>
		<g>
			<path class="st11" d="M427.9,269.7c-11-10.2-30.5-9-40.2,2.5c-3.8,4.5-6.4,10.4-11.6,13.2c-8,4.2-17.8-1.1-26.8-0.3
				c-10.6,0.9-19.3,11.7-18,22.2c0.6,4.8,2.9,9.8,0.6,14.1c-2.9,5.4-11.1,5.6-14.6,10.7c-3.1,4.5-0.7,11.3,3.9,14.4
				s10.4,3.5,15.9,3.3s11.1-1,16.5,0.2c5.9,1.3,11,5,16.7,7.2c13.6,5.4,29.5,2.4,42-5.1s22.3-18.9,30.8-30.8"/>
		</g>
	</g>
	<path class="st13" d="M425.2,283.5c-9-8.8-25.6-7.5-33.1,2.5c-4.6,6.1-7.3,15.5-14.9,16.5c-5.1,0.7-10-3.2-15.2-2.8
		c-6.9,0.5-11.1,8.9-9.3,15.6s7.6,11.5,13.8,14.6c21.4,10.9,49.9,5.1,65.4-13.2"/>
	<polyline class="st14" points="628.9,305.9 617.4,289.5 632.4,278.8 643,300.2 629.6,305.8 	"/>
	<path class="st7" d="M642.3,297.3l8.2,14.8c0,0,17.8-3.4,19.5-0.8L642,328.2l-13.7-22.5L642.3,297.3z"/>
	<g class="st15">
		<path class="st9" d="M641.1,316.1c-0.5,0.5-0.5,1.3,0,1.8c0.5,0.5,1.3,0.5,1.8,0c0.5-0.5,0.5-1.4,0-1.9
			C642.3,315.5,641.5,315.6,641.1,316.1"/>
	</g>
	<g class="st15">
		<path class="st9" d="M642,328.2l-1.3-2.3l27.4-15.3c0,0,1.6-0.2,2,0.8L642,328.2z"/>
	</g>
	<path class="st7" d="M650.9,311.7c0.1,0.1-0.6,0.6-1,1.5s-0.4,1.6-0.6,1.7s-0.4-0.9,0.1-1.9S650.8,311.5,650.9,311.7z"/>
	<path class="st7" d="M654.6,311.1c0.1,0.1-0.3,0.7-0.5,1.6s0.1,1.6,0,1.6s-0.7-0.6-0.5-1.7S654.5,311,654.6,311.1z"/>
	<path class="st7" d="M658.4,313.6c-0.1,0.1-0.7-0.5-0.8-1.4s0.4-1.6,0.5-1.6s0,0.7,0.1,1.5S658.5,313.5,658.4,313.6z"/>
	<path class="st7" d="M648.7,308.5c0,0.2-0.7,0.4-1.5,0.9s-1.2,1.1-1.3,1s0.1-0.9,1-1.5S648.7,308.4,648.7,308.5z"/>
	<path class="st7" d="M646.9,305.5c0,0.1-0.5,0.5-1.4,0.8c-0.9,0.4-1.8,0.5-2.8,0.5c-0.2,0-0.4,0-0.6-0.1c-0.3-0.1-0.5-0.4-0.5-0.7
		c0-0.3,0.2-0.5,0.4-0.7c0.2-0.1,0.4-0.2,0.6-0.2c0.3-0.1,0.7-0.2,1-0.2c0.6-0.1,1.2,0,1.8,0.1c1,0.2,1.5,0.6,1.5,0.6
		s-0.6-0.2-1.6-0.3c-0.6-0.1-1.1,0-1.7,0c-0.3,0-0.7,0.1-1,0.2c-0.3,0.1-0.6,0.3-0.6,0.4s0,0.1,0.1,0.1c0.2,0,0.3,0,0.5,0
		c0.3,0,0.7,0,1,0c0.6-0.1,1.1-0.2,1.7-0.3C645.9,305.8,646.4,305.7,646.9,305.5z"/>
	<path class="st7" d="M646.9,305.9c0,0-0.6-0.3-1.2-1.1c-0.3-0.5-0.6-1.1-0.7-1.6c-0.1-0.3-0.1-0.7-0.2-1.1
		c-0.1-0.5,0.1-0.9,0.5-1.3c0.2-0.2,0.6-0.2,0.8,0c0.2,0.1,0.3,0.3,0.5,0.4c0.2,0.3,0.4,0.6,0.6,0.9c0.2,0.6,0.3,1.2,0.3,1.8
		c-0.1,1-0.6,1.6-0.6,1.5c0.1-0.5,0.2-1,0.2-1.5c0-0.5-0.1-1.1-0.3-1.6c-0.1-0.3-0.3-0.6-0.5-0.8c-0.2-0.3-0.5-0.4-0.6-0.3
		c-0.2,0.2-0.3,0.5-0.2,0.8c0,0.3,0,0.7,0.1,1c0.1,0.5,0.3,1.1,0.6,1.6C646.5,305.4,646.9,305.8,646.9,305.9z"/>
	<polyline class="st7" points="586.1,247.6 622,304.1 641.7,290.7 608.6,222.7 	"/>
	<path class="st8" d="M589,235.2c0.2,0.1-0.9,2.4-1.4,5.4s-0.3,5.6-0.5,5.6C586.4,242.4,587,238.5,589,235.2L589,235.2z"/>
	<path class="st8" d="M585.3,235.4c0.2,0,0,2.5,0.4,5.5s1.2,5.3,1,5.4C585.2,242.9,584.7,239.1,585.3,235.4L585.3,235.4z"/>
	<path class="st16" d="M445.9,247.4l-24.6-7.6c-29.7,37.9-27.8,79.5,20.1,104.1l26.6-29.8L445.9,247.4z"/>
	<path class="st1" d="M448.4,241.4c-15.8,9.2-23.6,28.6-21.7,47.6c2.1,20.8,15.9,41.1,41.1,46.7l169.5-33.9
		c27.9-5.6,46-32.7,40.4-60.6c-0.3-1.4-0.6-2.9-1-4.3l0,0c-7.7-26.4-34.8-42.2-61.5-35.7L448.4,241.4z"/>
	<path class="st7" d="M448.4,241.4l1.6-0.4l4.6-1.1l17.8-4.4l65.6-15.9l45.3-11l25.3-6.1l6.5-1.6l3.4-0.6c0.6-0.1,1.1-0.2,1.7-0.3
		l1.7-0.1c1.2-0.1,2.3-0.2,3.5-0.3h3.5c1.2,0,2.3,0.1,3.5,0.2l1.8,0.2l0.9,0.1l0.9,0.2l3.5,0.7c1.2,0.3,2.3,0.7,3.4,1
		c0.6,0.2,1.2,0.3,1.7,0.5l1.7,0.7l1.7,0.7c0.6,0.2,1.1,0.5,1.7,0.7l3.2,1.7c1.1,0.6,2.1,1.3,3.1,2c0.5,0.3,1,0.6,1.5,1l1.5,1.1
		l1.5,1.1l0.7,0.6l0.7,0.6c7.6,6.8,13,15.7,15.6,25.5c2.7,10.2,2.1,21-1.5,30.9c-3.8,10.2-10.7,18.9-19.7,25
		c-3.8,2.6-7.9,4.6-12.3,6.1c-4.3,1.5-8.8,2.2-13.2,3.1l-26,5.2l-49.6,10l-87.2,17.4h-0.1c-4.4-1-8.8-2.6-12.9-4.6
		c-7.6-3.8-14.1-9.5-18.9-16.5c-2.2-3.2-4-6.6-5.5-10.2c-0.4-0.9-0.6-1.8-1-2.6c-0.3-0.8-0.6-1.7-0.9-2.6c-0.3-0.9-0.5-1.7-0.7-2.6
		l-0.5-2.6c-0.2-0.8-0.3-1.7-0.5-2.5c-0.1-0.8-0.2-1.7-0.3-2.5s-0.1-1.7-0.2-2.5s-0.1-1.6-0.1-2.4c-0.1-5.9,0.7-11.7,2.5-17.3
		c1.4-4.5,3.4-8.8,6-12.7c1.9-2.9,4.2-5.5,6.7-7.8c0.5-0.5,1-0.9,1.5-1.3l1.4-1.1l1.2-0.9l1-0.6L448.4,241.4l-1.9,1.2l-1,0.7
		l-1.2,0.9l-1.3,1c-0.5,0.4-0.9,0.9-1.5,1.3c-2.5,2.3-4.8,5-6.6,7.9c-2.6,3.9-4.6,8.2-6,12.7c-1.7,5.6-2.5,11.4-2.4,17.3
		c0,0.8,0,1.6,0.1,2.4s0.1,1.6,0.2,2.5s0.2,1.7,0.3,2.5c0.1,0.9,0.3,1.7,0.5,2.5c0.2,0.8,0.4,1.7,0.5,2.6s0.5,1.7,0.7,2.6
		c0.2,0.9,0.5,1.7,0.9,2.6c0.3,0.9,0.6,1.7,1,2.6c1.5,3.5,3.3,6.9,5.5,10.1c2.4,3.3,5.1,6.4,8.1,9.1c3.3,2.8,6.9,5.2,10.7,7.2
		c4.1,2,8.4,3.5,12.8,4.5h-0.1l87.1-17.5l49.7-9.9l26-5.2c4.4-0.9,8.9-1.6,13.1-3.1c4.3-1.4,8.4-3.5,12.1-6
		c8.9-6,15.7-14.7,19.5-24.8c3.6-9.8,4.2-20.5,1.5-30.6c-2.6-9.8-7.9-18.5-15.4-25.3l-0.7-0.6L660,212l-1.4-1.1l-1.4-1.1
		c-0.5-0.4-1-0.7-1.5-1c-1-0.6-2-1.4-3.1-1.9l-3.2-1.7c-0.5-0.3-1.1-0.5-1.6-0.7l-1.7-0.7l-1.7-0.7c-0.6-0.2-1.1-0.4-1.7-0.5
		c-1.1-0.3-2.3-0.7-3.4-1l-3.5-0.7l-0.9-0.2l-0.9-0.1l-1.7-0.2c-1.2-0.2-2.3-0.2-3.5-0.3h-3.5c-1.2,0.1-2.3,0.2-3.4,0.3l-1.7,0.1
		c-0.6,0.1-1.1,0.2-1.7,0.3l-3.3,0.6l-6.6,1.5l-25.3,6.1L538.1,220l-65.6,15.7l-17.9,4.3l-4.6,1.1L448.4,241.4z"/>
	<path class="st3" d="M467.7,335.7l-22.4,50.8c0,0,105.5-10.2,101-66.6L467.7,335.7z"/>
	<path class="st3" d="M528.2,222.2c0,0-50.7-49.2-115.2-28.5l35.4,47.7L528.2,222.2z"/>
	<path class="st3" d="M620.8,200.5c21.8,16,35.1,78.6,24.6,98.4c61.7-18,74.6-71,74.6-71C675.4,186.4,620.8,200.5,620.8,200.5z"/>
	<path class="st8" d="M436,312.5c0.1,0.1-3.3,4.1-7.6,9.1s-7.9,8.8-8,8.7s3.3-4.1,7.6-9.1S435.9,312.4,436,312.5z"/>
	<path class="st7" d="M720,227.9c0,0-0.1,0.2-0.4,0.7l-1.2,1.9l-1.9,3.2c-0.4,0.6-0.8,1.3-1.2,2l-1.5,2.2c-1.1,1.6-2.3,3.3-3.6,5.1
		l-4.7,5.8c-0.9,1-1.8,2-2.8,3.1s-1.9,2.2-3,3.2c-2.2,2.1-4.5,4.4-7.2,6.5c-5.7,4.8-11.9,8.9-18.5,12.2c-3.7,1.9-7.5,3.5-11.4,4.9
		c-2,0.7-4.1,1.4-6.1,2.1c-2.1,0.7-4.3,1.2-6.5,1.7c-17.5,3.9-36.8,7.8-57,12c-40.5,8.4-77.1,15.8-103.7,21.2l-31.4,6.4l-8.5,1.7
		l-2.2,0.4c-0.5,0.1-0.8,0.1-0.8,0.1l0.8-0.2l2.2-0.5l8.5-1.8l31.4-6.5L593,294c20.2-4.2,39.5-8.1,57-12c2.2-0.4,4.3-1,6.4-1.6
		c2.1-0.8,4.1-1.4,6.1-2.1c3.9-1.4,7.7-3,11.3-4.8c6.6-3.3,12.8-7.4,18.4-12.1c2.7-2.1,4.9-4.4,7.2-6.5c1.1-1,2.1-2.2,3.1-3.2
		s1.9-2.1,2.8-3.1l4.7-5.8c1.4-1.9,2.6-3.6,3.7-5.1l1.5-2.2l1.2-2l2-3.1c0.5-0.8,0.9-1.5,1.2-1.9S720,227.9,720,227.9z"/>
	<path class="st7" d="M559.5,317.4c0,0-0.1-0.1-0.2-0.2l-0.5-0.6l-1.8-2.4l-1.3-1.8c-0.5-0.6-0.9-1.4-1.4-2.2
		c-1-1.6-2.3-3.3-3.4-5.4l-1.8-3.2c-0.6-1.1-1.2-2.3-1.8-3.6c-1.3-2.4-2.4-5.2-3.7-8c-5.2-12.5-8.1-25.8-8.8-39.4
		c-0.1-3.1-0.2-6.1-0.1-8.8c0.1-1.4,0-2.7,0.2-4s0.2-2.5,0.3-3.7c0.2-2.4,0.5-4.4,0.8-6.3c0.2-0.9,0.3-1.8,0.4-2.6s0.3-1.5,0.5-2.1
		c0.3-1.3,0.5-2.2,0.6-3c0.1-0.3,0.1-0.6,0.2-0.8s0.1-0.3,0.1-0.3c0,0.1,0,0.2,0,0.3c0,0.2-0.1,0.5-0.1,0.8l-0.5,3
		c-0.1,0.6-0.3,1.4-0.4,2.1s-0.2,1.6-0.3,2.6c-0.2,1.9-0.6,3.9-0.7,6.3c-0.1,1.2-0.2,2.4-0.3,3.7s-0.1,2.6-0.1,4
		c-0.1,2.8,0,5.7,0.1,8.8c0.7,13.5,3.6,26.7,8.7,39.2c1.2,2.8,2.3,5.6,3.6,8c0.6,1.2,1.2,2.4,1.8,3.6l1.8,3.2
		c1.1,2.1,2.3,3.8,3.3,5.4c0.5,0.8,1,1.5,1.4,2.2s0.9,1.2,1.3,1.8c0.8,1,1.3,1.9,1.8,2.5l0.4,0.6
		C559.4,317.3,559.4,317.4,559.5,317.4z"/>
	<path class="st16" d="M511.8,265l-106.3,22c0,0-0.5,10.4,2.1,10.5c2.2,0.1,81.2-14.2,106.9-18.8c3.8-0.7,6.3-4.3,5.6-8
		c-0.1-0.4-0.2-0.7-0.3-1.1l0,0C518.7,266.3,515.3,264.3,511.8,265z"/>
	
		<ellipse transform="matrix(1.396295e-03 -1 1 1.396295e-03 337.2932 848.0581)" class="st6" cx="593.3" cy="255.1" rx="23.6" ry="25.4"/>
	<path class="st7" d="M618.7,255.2c0-0.1,0-0.3,0-0.4c0-0.3-0.1-0.7-0.1-1.2c0-0.3,0-0.5-0.1-0.9s-0.1-0.6-0.2-1s-0.1-0.8-0.2-1.2
		s-0.2-0.9-0.4-1.3c-0.3-1-0.7-2-1.1-3c-1.9-4-4.8-7.4-8.4-9.9c-3.1-2.1-6.7-3.6-10.4-4.2c-1-0.2-2-0.3-3.1-0.3
		c-0.5,0-1.1-0.1-1.6-0.1l-1.6,0.1h-0.8l-0.8,0.1l-1.6,0.2l-1.6,0.4l-0.8,0.2l-0.8,0.3c-4.6,1.5-8.6,4.2-11.7,7.9
		c-6.9,8.2-6.9,20.1,0,28.3c3,3.7,7.1,6.5,11.7,7.9l0.8,0.3l0.8,0.2l1.6,0.4l1.6,0.2l0.8,0.1h0.8l1.6,0.1c0.5,0,1.1,0,1.6,0
		c1,0,2.1-0.1,3.1-0.3c3.7-0.6,7.2-2,10.4-4.1c4.7-3,8.1-7.6,9.6-12.9c0.1-0.5,0.3-0.9,0.4-1.3s0.2-0.8,0.2-1.2s0.1-0.7,0.2-1
		s0-0.6,0.1-0.9c0-0.5,0.1-0.9,0.1-1.2C618.6,255.4,618.7,255.3,618.7,255.2c0,0.1,0,0.2,0,0.4v1.2c0,0.3,0,0.5,0,0.9
		s-0.1,0.7-0.2,1s-0.1,0.8-0.2,1.2s-0.2,0.9-0.3,1.3c-0.3,1-0.6,2.1-1.1,3.1c-0.5,1.2-1.2,2.3-1.9,3.4c-1.8,2.6-4,4.9-6.6,6.7
		c-3.2,2.2-6.8,3.6-10.6,4.3c-1,0.2-2.1,0.3-3.1,0.3c-0.5,0-1.1,0.1-1.6,0.1l-1.6-0.1h-0.8l-0.8-0.1l-1.7-0.2l-1.7-0.4l-0.8-0.2
		l-0.8-0.3c-4.7-1.5-8.8-4.3-11.9-8.1c-7-8.4-7-20.6,0-28.9c3.1-3.8,7.3-6.5,12-8l0.8-0.3l0.8-0.2l1.7-0.4l1.7-0.2l0.8-0.1h0.8
		l1.6-0.1c0.5,0,1.1,0.1,1.6,0.1c1,0,2.1,0.2,3.1,0.3c3.8,0.6,7.3,2.1,10.5,4.2c2.6,1.8,4.8,4.1,6.6,6.7c1.3,2,2.3,4.2,2.9,6.5
		c0.1,0.5,0.3,0.9,0.3,1.3s0.1,0.8,0.2,1.2s0.1,0.7,0.2,1s0,0.6,0,0.9c0,0.5,0,0.9,0,1.2C618.7,254.9,618.7,255,618.7,255.2z"/>
	<path class="st4" d="M292.7,340.5c-2.9,1.3-6.3,1.1-9.5,0.8s-6.4-0.9-9.6-0.3c-4.9,1-9.2,4.6-14.1,4.4c-6.9-0.4-11-7.8-17.1-11
		c-7.4-4-17.3-1.5-23.3-8.9c-3.6-4.5-4.2-10.7-1.4-15.8c4.3-7.8,14.3-9.1,22.1-6.3c6.7,2.4,12.2,7.3,17.4,12.1
		c1.8,1.6,3.6,3.3,5.4,4.9c5.9,5.1,13.7,7.6,21.5,6.8l0,0c3.7-0.4,7.5,0.7,10.4,3c0.8,0.6,1.4,1.5,1.8,2.4l0,0
		c0.4,0.9,0.6,1.9,0.5,2.9C296.7,338.1,295.1,339.5,292.7,340.5z"/>
	<g>
		<path class="st17" d="M292.7,340.5c-2.9,1.3-6.3,1.1-9.5,0.8s-6.4-0.9-9.6-0.3c-4.9,1-9.2,4.6-14.1,4.4c-6.9-0.4-11-7.8-17.1-11
			c-7.4-4-17.3-1.5-23.3-8.9c-3.6-4.5-4.2-10.7-1.4-15.8c4.3-7.8,14.3-9.1,22.1-6.3c6.7,2.4,12.2,7.3,17.4,12.1
			c1.8,1.6,3.6,3.3,5.4,4.9c5.9,5.1,13.7,7.6,21.5,6.8l0,0c3.7-0.4,7.5,0.7,10.4,3c0.8,0.6,1.4,1.5,1.8,2.4l0,0
			c0.4,0.9,0.6,1.9,0.5,2.9C296.7,338.1,295.1,339.5,292.7,340.5z"/>
	</g>
	<path class="st4" d="M179.5,337.2c-2-3.5-8-3.5-11.6-1.8s-6.1,5.1-8.5,8.3s-5.2,6.4-9,7.7c-4.1,1.4-8.5,0.3-12.8,0.3
		s-9.3,2.1-10,6.3c-0.4,2.5,0.4,5,2.1,6.8c1.7,1.6,3.7,2.9,5.9,3.8c5.7,2.3,11.8,3.5,18,3.5c8-0.1,15.5-4,20.3-10.4
		c4.7-6.4,10.9-17.5,5.4-24.6"/>
	<g>
		<path class="st17" d="M179.5,337.2c-2-3.5-8-3.5-11.6-1.8s-6.1,5.1-8.5,8.3s-5.2,6.4-9,7.7c-4.1,1.4-8.5,0.3-12.8,0.3
			s-9.3,2.1-10,6.3c-0.4,2.5,0.4,5,2.1,6.8c1.7,1.6,3.7,2.9,5.9,3.8c5.7,2.3,11.8,3.5,18,3.5c8-0.1,15.5-4,20.3-10.4
			c4.7-6.4,10.9-17.5,5.4-24.6"/>
	</g>
	<path class="st4" d="M70.5,357.6c-1.8,0.6-3.4,1.7-4.7,3.1c-1.3,1.4-1.7,3.5-1.2,5.3c0.6,1.9,2.6,2.9,4.5,2.4
		c0.9-0.3,1.7-1.1,2.7-1.3c1.6-0.3,3,1.1,4.5,1.4c2.3,0.4,4.6-2,4.5-4.3s-2-4.2-3.9-5.6C75.2,357.4,72.8,357,70.5,357.6"/>
	<g>
		<path class="st17" d="M70.5,357.6c-1.8,0.6-3.4,1.7-4.7,3.1c-1.3,1.4-1.7,3.5-1.2,5.3c0.6,1.9,2.6,2.9,4.5,2.4
			c0.9-0.3,1.7-1.1,2.7-1.3c1.6-0.3,3,1.1,4.5,1.4c2.3,0.4,4.6-2,4.5-4.3s-2-4.2-3.9-5.6C75.2,357.4,72.8,357,70.5,357.6"/>
	</g>
	<path class="st8" d="M507.2,194.4c-8.2-0.4-12.2,5.8-16.8,7s-9.6,1.5-14-0.3c-5.7-2.3-9.6-7.6-14.6-11.2c-10-7.2-24.9-6.8-34.4,1
		c-0.2,5.4,4.4,9.8,9,12.8s17,7.5,18.6,12.7c1.2,3.9-7.2,7.2-5.1,10.7s9.1,3.1,13,2.5c24.4-4.2,15.9,3.3,23.4,2.6
		c0,0,15.8-4,28.2-6.1"/>
	<polyline class="st14" points="589.5,338.2 581.5,319.7 598.5,312.4 604.4,335.5 590.2,338.2 	"/>
	<path class="st7" d="M604.4,332.5l5,16.1c0,0,18.1,0.4,19.3,3.3l-31,10.7l-8.8-24.8L604.4,332.5z"/>
	<g class="st15">
		<path class="st9" d="M599.3,350.6c-0.6,0.4-0.7,1.2-0.4,1.8c0.4,0.6,1.1,0.7,1.7,0.4c0.6-0.4,0.8-1.2,0.4-1.9
			c-0.5-0.6-1.3-0.6-1.8-0.2"/>
	</g>
	<g class="st15">
		<path class="st9" d="M597.6,362.7l-0.8-2.5l30-9.3c0,0,1.6,0.1,1.8,1.1L597.6,362.7z"/>
	</g>
	<path class="st7" d="M609.8,348.4c0,0.1-0.7,0.5-1.3,1.2s-0.8,1.5-0.9,1.5s-0.2-1,0.5-1.9S609.8,348.2,609.8,348.4z"/>
	<path class="st7" d="M613.5,348.6c0.1,0.1-0.5,0.6-0.8,1.4s-0.2,1.5-0.4,1.6s-0.5-0.8-0.2-1.8S613.4,348.4,613.5,348.6z"/>
	<path class="st7" d="M616.7,351.8c-0.1,0.1-0.6-0.6-0.5-1.6s0.7-1.5,0.8-1.4s-0.2,0.7-0.2,1.5S616.8,351.7,616.7,351.8z"/>
	<path class="st7" d="M608.2,344.8c0,0.2-0.8,0.2-1.6,0.5s-1.4,0.9-1.5,0.8s0.3-0.9,1.3-1.3S608.3,344.6,608.2,344.8z"/>
	<path class="st7" d="M607.2,341.5c-0.5,0.3-1,0.5-1.6,0.5c-0.6,0.1-1.2,0.1-1.8,0.1c-0.4,0-0.7-0.1-1-0.2c-0.2,0-0.4-0.1-0.6-0.2
		c-0.3-0.2-0.4-0.5-0.3-0.8c0.1-0.3,0.3-0.5,0.5-0.6c0.2-0.1,0.4-0.1,0.6-0.1c0.4,0,0.7,0,1.1,0c0.6,0.1,1.2,0.2,1.8,0.4
		c1,0.4,1.4,0.9,1.3,1s-0.6-0.3-1.5-0.6c-0.5-0.2-1.1-0.3-1.7-0.3c-0.3,0-0.7,0-1,0c-0.4,0-0.6,0.1-0.7,0.3s0,0.1,0.1,0.2
		c0.1,0.1,0.3,0.1,0.4,0.1c0.3,0.1,0.7,0.1,1,0.2c0.6,0.1,1.1,0.1,1.7,0C606.1,341.6,606.6,341.5,607.2,341.5z"/>
	<path class="st7" d="M607,341.8c0,0-0.5-0.4-0.9-1.4c-0.2-0.6-0.4-1.2-0.4-1.8c0-0.4,0-0.7,0.1-1.1c0-0.5,0.3-0.9,0.7-1.1
		c0.3-0.1,0.6,0,0.8,0.2c0.1,0.2,0.3,0.3,0.4,0.5c0.2,0.3,0.3,0.7,0.4,1c0.1,0.6,0.1,1.2-0.1,1.8c-0.3,1-0.9,1.4-0.9,1.4
		c0.2-0.5,0.4-1,0.5-1.5c0.1-0.5,0.1-1.1,0-1.6c-0.1-0.3-0.2-0.6-0.3-0.9c-0.2-0.3-0.4-0.5-0.5-0.5c-0.2,0.2-0.3,0.4-0.4,0.7
		c-0.1,0.3-0.1,0.7-0.1,1c0,0.6,0.1,1.1,0.2,1.6C606.8,341.3,607.1,341.8,607,341.8z"/>
	<path class="st4" d="M508.5,195c0,0-14.7,29.1-4.8,35.9c9.9,6.8,55.9,41.4,55.9,41.4l23.5,62.7l22-9l-18.3-73.4L540.5,211
		L508.5,195z"/>
	<path class="st8" d="M565,260.8c0.1,0.1-1.4,2.1-2.5,5s-1.4,5.4-1.6,5.4C560.9,267.3,562.4,263.6,565,260.8z"/>
	<path class="st8" d="M561.4,260.2c0.2,0-0.5,2.4-0.7,5.4s0,5.5-0.1,5.5c-0.5-1.8-0.6-3.7-0.4-5.5
		C560.2,263.7,560.6,261.9,561.4,260.2z"/>
	<path class="st8" d="M585.3,334.1c-0.1-0.1-0.1-0.2-0.1-0.3c-0.1-0.2-0.2-0.5-0.4-0.9c-0.3-0.9-0.8-2.1-1.4-3.6
		c-1.2-3.2-3-7.8-5.1-13.5s-4.6-12.6-7.3-20.4c-0.7-1.9-1.3-4-2-6s-1.2-4.2-2.1-6.3c-1.7-4.2-3.7-8.4-5.9-12.7l0.1,0.1
		c-2.5-2.1-5.1-4.3-7.8-6.5c-2.1-1.7-4.2-3.4-6.3-5l-6.2-4.7c-4.1-3.1-8-6.1-11.8-8.8s-7.6-5.1-11-7.5c-3.2-2.1-6.3-4.6-9.1-7.3
		c-1.2-1.2-2.3-2.5-3.2-3.9c-0.8-1.3-1.4-2.7-1.8-4.2c-0.5-2.4-0.6-4.8-0.1-7.2c0.3-1.5,0.7-3,1.3-4.4c0.2-0.5,0.4-0.9,0.5-1.1
		c0-0.1,0.1-0.3,0.2-0.4c0,0,0,0.1-0.1,0.4s-0.2,0.6-0.4,1.1c-0.5,1.4-0.9,2.9-1.2,4.4c-0.4,2.4-0.4,4.8,0.2,7.1
		c0.4,1.4,1,2.8,1.8,4.1c0.9,1.4,2,2.7,3.2,3.9c2.8,2.6,5.8,5,9.1,7.2c3.4,2.3,7.2,4.7,11,7.4s7.8,5.7,11.8,8.8l6.2,4.7
		c2.1,1.6,4.2,3.3,6.3,5c2.7,2.2,5.3,4.4,7.8,6.5l0,0v0c2.2,4.3,4.2,8.5,5.9,12.7c0.8,2.1,1.5,4.2,2.1,6.3c0.6,2.1,1.3,4.1,1.9,6
		c2.6,7.8,5.1,14.7,7.2,20.4l4.9,13.5c0.6,1.6,1,2.8,1.3,3.7l0.3,1C585.2,333.8,585.3,333.9,585.3,334.1z"/>
	<polygon class="st7" points="526.6,204.3 555,208.3 569.5,212 549.6,219.2 	"/>
	<path class="st7" d="M491.9,202.3c-0.2,0.3-0.4,0.5-0.6,0.7c-0.6,0.6-1.2,1.1-1.8,1.6c-4.2,3.4-9.3,5.5-14.7,6.1
		c-0.8,0.1-1.6,0.1-2.4,0.1c-0.3,0-0.6,0-0.9-0.1c0-0.1,1.3-0.1,3.3-0.4c2.6-0.4,5.2-1.1,7.6-2.1c2.5-1,4.8-2.4,6.9-3.9
		C490.9,203.1,491.8,202.2,491.9,202.3z"/>
	<path class="st11" d="M512.2,160.7l-5.5,41.1c0,0,18.2-1.2,31,3.1s20.7,4.1,20.7,4.1l-2.7-25.6l9.6-21l4.2,24.6l19.7,20.2l12.8-2.9
		l-13.3-22.2l-9.2-45.3l0,0c-0.8-3.8-2.8-7.2-5.8-9.6l-0.4-0.3l-19.3-10.8l-6.5,0.1c-5.5,0.1-10.9,0.7-16.3,1.7
		c-3.4,0.6-6.4,2.3-8.8,4.7l0,0c-2.1,2.4-3.7,5.3-4.5,8.4L512.2,160.7z"/>
	<path class="st7" d="M573.5,143.5c-0.1,0.5-0.3,0.9-0.5,1.3l-1.5,3.5c-1.3,3-3,7.1-5,11.6l-5.1,11.5c-0.6,1.4-1.2,2.6-1.6,3.5
		c-0.2,0.4-0.4,0.8-0.6,1.3c0.1-0.5,0.2-0.9,0.4-1.3c0.3-0.9,0.8-2.1,1.4-3.5c1.2-3,3-7.1,5-11.6s3.8-8.6,5.2-11.5l1.6-3.5
		C573.1,144.3,573.3,143.9,573.5,143.5z"/>
	<path class="st11" d="M519,136.4c3.8,10.5,11,34.4,14.5,43.6c1.1,2.8,2.9,5.3,5.2,7.1l39,27.6l9-11.7l-29.2-28.2l-15.8-46.7
		c-2.2-6.2-11.4-9.6-17.2-6.3l0,0C520.3,124.4,517.3,131.6,519,136.4z"/>
	<path class="st7" d="M542.5,130.1c0,0,0.1,0.3,0.3,0.8l0.8,2.4c0.7,2.1,1.8,5.2,3.1,9.1l11,32.4l-0.1-0.1l29.3,28.2l0.2,0.2
		l-0.1,0.2l-6.5,8.4c-0.9,1.1-1.7,2.3-2.5,3.3l-0.2,0.2l-0.2-0.1l-29.9-21.6l-6.7-4.8l-1.6-1.2c-0.5-0.4-1.1-0.8-1.6-1.2
		c-1-0.9-1.8-1.9-2.5-3c-0.7-1.1-1.2-2.2-1.6-3.4l-1.3-3.3c-0.8-2.2-1.6-4.3-2.3-6.3c-2.9-8-5-14.5-6.4-19.1c-0.7-2.3-1.2-4-1.6-5.2
		c-0.2-0.6-0.3-1-0.4-1.4c0-0.2-0.1-0.3-0.1-0.5c0,0,0.1,0.1,0.2,0.5s0.3,0.8,0.5,1.3c0.4,1.2,1,2.9,1.7,5.2c1.5,4.5,3.7,11,6.6,19
		c0.7,2,1.5,4.1,2.3,6.3c0.4,1.1,0.9,2.2,1.3,3.3c0.4,1.1,1,2.2,1.6,3.3c0.7,1.1,1.5,2,2.4,2.9c0.5,0.4,1,0.8,1.5,1.2l1.6,1.2
		l6.7,4.9l30,21.5h-0.3l2.5-3.3l6.5-8.4v0.3L557.4,175l0,0v-0.1c-4.5-13.5-8.2-24.7-10.8-32.5l-3-9.1l-0.8-2.4
		C542.6,130.4,542.5,130.1,542.5,130.1z"/>
	<path class="st7" d="M538.8,124.4c-0.1,0.1-0.7-0.6-2-1.4c-3.3-2.1-7.6-2.3-11.1-0.5c-1.3,0.7-2,1.3-2.1,1.2
		c0.5-0.6,1.2-1.2,1.9-1.5c3.6-2,8.1-1.8,11.5,0.6C537.7,123.1,538.3,123.7,538.8,124.4z"/>
	<path class="st7" d="M589.6,182.7c0,0.2-1.8,0-4,0.5s-3.7,1.5-3.8,1.4c1-1,2.3-1.6,3.7-1.9C586.8,182.3,588.3,182.3,589.6,182.7z"
		/>
	<path class="st6" d="M524.1,152.1c-0.1,0-0.3,0.1-0.4,0.1c-0.4,0.1-0.7,0.1-1.1,0.2c-1.2,0.1-2.4,0-3.6-0.2c-1.5-0.4-3-1.1-4.2-2.2
		c-0.1-0.1-0.2-0.2-0.3-0.3c1.4,1,2.9,1.8,4.5,2.2C520.8,152.3,522.5,152.3,524.1,152.1z"/>
	<path class="st6" d="M527.2,161.1c-0.6-0.4-1.2-0.8-1.8-1.1c-1.6-0.7-3.3-1.2-5-1.3c-1.7-0.1-3.5-0.1-5.2,0.1l-1.6,0.1
		c-0.2,0-0.4,0-0.6,0c0.2-0.1,0.4-0.1,0.6-0.1c0.4-0.1,0.9-0.1,1.6-0.2c1.7-0.2,3.5-0.3,5.2-0.2c1.7,0.1,3.4,0.6,5,1.4
		c0.5,0.2,0.9,0.5,1.3,0.8C526.9,160.8,527,160.9,527.2,161.1z"/>
	<g class="st10">
		<path d="M522.1,145.9c0,0,1,15.6,2.2,22.9s3.5,14.6,8.6,19.8s12.6,7.5,19.8,9c-2.3-1.8-4.6-3.6-6.9-5.4c-2.9-2.4-7.1-4.8-9.5-7.7
			c-4.5-5.7-5.5-12.9-7.8-19.7C526.6,158.3,524.3,152.3,522.1,145.9"/>
	</g>
	<path class="st6" d="M549.3,152c-0.3,0.2-0.5,0.3-0.8,0.4c-0.8,0.3-1.7,0.4-2.5,0.4c-2.2,0-5-1-8.2-0.7c-2.8,0.2-5.4,1.1-7.8,2.5
		c-0.7,0.4-1.4,0.9-2,1.4l-0.5,0.4c-0.1,0.1-0.2,0.1-0.2,0.1c0.8-0.8,1.7-1.6,2.7-2.1c2.4-1.5,5.1-2.4,7.9-2.6
		c3.3-0.3,6.2,0.8,8.3,0.8c0.8,0,1.7-0.1,2.5-0.3C549,152.2,549.3,152,549.3,152z"/>
	<path class="st6" d="M546.4,144.4c-0.1,0-0.1,0.1-0.2,0.1l-0.6,0.3c-0.5,0.3-1.2,0.7-2.2,1.1c-4.9,2.3-10.2,3.5-15.6,3.7
		c-1,0-1.9,0-2.4,0h-0.7c-0.1,0-0.2,0-0.2,0h0.2h0.7c0.6,0,1.4,0,2.4-0.1c2.7-0.1,5.3-0.5,7.9-1.1c2.6-0.6,5.1-1.5,7.6-2.6
		c0.9-0.4,1.7-0.8,2.2-1l0.6-0.3C546.3,144.5,546.4,144.4,546.4,144.4z"/>
	<path class="st6" d="M568.5,152.6l-0.3-0.1c-0.3-0.1-0.5-0.2-0.8-0.3c-0.9-0.4-1.7-0.9-2.4-1.6c-1.9-1.6-3.7-4.7-6.6-7
		c-3.3-2.6-7.2-4.3-11.4-4.7l-0.8-0.1c-0.1,0-0.2,0-0.3,0c1.3,0,2.7,0.2,4,0.5c3.2,0.7,6.1,2.2,8.6,4.2c1.4,1.1,2.6,2.4,3.7,3.8
		c0.9,1.1,1.8,2.2,2.9,3.2c0.7,0.7,1.5,1.2,2.4,1.6C568.2,152.6,568.5,152.6,568.5,152.6z"/>
	<path class="st6" d="M567.4,157.4c-0.3-0.1-0.6-0.1-0.8-0.2c-0.7-0.3-1.4-0.7-2-1.2c-0.9-0.8-1.7-1.6-2.5-2.5c-0.9-1.1-1.9-2.1-3-3
		c-1.1-0.9-2.4-1.5-3.8-1.6c-1.1-0.2-2.3-0.2-3.5-0.1c-1,0.1-1.8,0.2-2.3,0.3l-0.6,0.1c-0.1,0-0.1,0-0.2,0c0.1,0,0.1-0.1,0.2-0.1
		l0.6-0.1c0.5-0.1,1.3-0.2,2.3-0.3c1.2-0.1,2.3-0.1,3.5,0c1.5,0.2,2.8,0.8,4,1.7c1.1,0.9,2.1,2,3,3.1c0.7,0.9,1.5,1.7,2.4,2.5
		c0.6,0.5,1.3,0.9,2,1.3C567.1,157.3,567.4,157.4,567.4,157.4z"/>
	<path class="st6" d="M582.7,154.2c-0.7-0.2-1.5-0.3-2.2-0.2c-0.8,0.1-1.6,0.2-2.4,0.5c-0.9,0.3-1.8,0.7-2.8,1.2
		c-0.9,0.4-1.9,0.8-2.8,1c-0.8,0.2-1.6,0.2-2.5,0.1c-0.6-0.1-1.1-0.3-1.6-0.5c-0.2-0.1-0.3-0.2-0.5-0.3c0.6,0.4,1.4,0.6,2.1,0.7
		c0.8,0.1,1.6,0,2.4-0.2c1-0.2,1.9-0.6,2.8-1c1-0.4,1.9-0.9,2.8-1.2c0.8-0.3,1.6-0.4,2.4-0.5c0.6,0,1.1,0,1.7,0.2
		C582.3,154.1,582.5,154.1,582.7,154.2z"/>
	<path class="st6" d="M584.3,159.6c-0.8-0.6-1.8-1-2.8-1c-1.1,0-2.1,0.2-3.1,0.6c-1.2,0.5-2.4,1.2-3.4,2c-1.1,0.8-2.2,1.5-3.4,2.1
		c-1,0.5-2.1,0.8-3.2,0.9c-0.7,0-1.5-0.1-2.2-0.3c-0.3-0.1-0.5-0.2-0.7-0.4c0.9,0.4,1.9,0.6,2.9,0.6c1.1-0.1,2.1-0.4,3.1-0.9
		c1.2-0.6,2.3-1.3,3.3-2.1c1.1-0.8,2.2-1.5,3.5-2c1-0.4,2.1-0.6,3.2-0.5c0.7,0,1.5,0.3,2.1,0.6C583.9,159.3,584.1,159.4,584.3,159.6
		z"/>
	<g class="st10">
		<path d="M567.6,175.7c2-8.2,2.4-17.1,2.7-25.5c-0.7,2.9-2.5,5.5-3.6,8.3c-0.5,1.3-1.4,3.8-1.4,3.8l2.3,13.2"/>
	</g>
	<path class="st7" d="M554.4,79.4c-0.2,1.5-1.3,2.8-2.8,3.3c-0.8,0.3-1.7,0.3-2.5,0.6c-0.9,0.2-1.4,1-1.4,1.9
		c0.1,0.6,0.7,1.1,1.2,1.5s0.9,1.1,0.6,1.7s-1.2,0.7-1.7,1.2c-0.5,0.6-0.4,1.5,0.1,2.1c0.5,0.5,1.1,1,1.8,1.4c0.7,0.4,1.1,1,1.4,1.7
		"/>
	<path class="st7" d="M584.1,92.4c2.2-4.7,0.6-10.4-2.8-14.3s-8.3-6-13.3-7.4c-0.7-0.2-1.6-0.3-2.1,0.2c-0.4,0.5-0.3,1.3,0.1,1.8
		c0.5,0.5,1,0.8,1.7,1c-2-1-4.2-1.6-6.4-1.8c-0.8-0.1-1.6,0.1-2.3,0.5c-0.7,0.4-1.1,1.2-0.9,2c0.2,0.6,0.9,1,1.5,0.8
		c0.1,0,0.3-0.1,0.4-0.2c-2.1-0.2-4.3,0.3-6.1,1.4c-1.3,0.8-2.5,2.2-2.1,3.7c0.3,0.8,0.7,1.6,1.1,2.4c0.5,1.6-0.2,3.2-0.8,4.7
		c-1,2.4-1.3,4.9-1,7.5c0.3,2.6,1.8,4.8,4,6.2"/>
	<path class="st14" d="M553.4,131.6c-5.5-1.5-8.7-7.1-7.2-12.5c0-0.1,0-0.2,0.1-0.2l9.2-31.1c2.1-7.8,10.1-12.5,18-10.4
		c0.1,0,0.3,0.1,0.4,0.1l0.7,0.3c7.2,2.6,11.3,10.4,9.2,17.8c-1.9,6.9-4.1,14.5-5.4,18.1c-2.8,7.4-10.7,5.9-10.7,5.9l-1.9,5.6
		C564,130.1,558.6,133,553.4,131.6z"/>
	<path class="st18" d="M567.7,119.4c-3.5-1.2-6.5-3.4-8.7-6.3c0,0,0.4,6.2,8,8.2L567.7,119.4z"/>
	<path class="st7" d="M566.3,82c-0.6-1.3-1.4-4.3-2.4-5.3s-2.7-0.7-4.2-0.3c-1.5,0.4-2.7,1.5-3.2,3c-2,5.4-2.2,10.4-3.7,15.7
		c-0.1,0.3-0.2,0.7-0.1,1.1c0.3,0.9,1.3,1.2,2.2,1.3c2.3,0.3,3.5-1.3,4.5-3.3c0.4-1.2,0.6-2.5,0.8-3.7c0.3-3.6,2.4-6.8,5.7-8.3
		L566.3,82z"/>
	<path class="st14" d="M556.7,92c-0.1-0.1-4.6-3.4-6.3,1.8s3.8,5.8,3.9,5.6S556.7,92,556.7,92z"/>
	<path class="st18" d="M553.4,97c0,0-0.1,0-0.3,0.1c-0.2,0-0.5-0.1-0.7-0.2c-0.5-0.7-0.7-1.5-0.4-2.3c0.1-0.4,0.4-0.9,0.7-1.2
		c0.2-0.3,0.5-0.5,0.9-0.5c0.2,0,0.4,0.2,0.5,0.4c0,0.2,0,0.3,0,0.3s0.1-0.1,0.2-0.3c0-0.1,0-0.3-0.1-0.4c-0.1-0.2-0.3-0.3-0.5-0.3
		c-0.5-0.1-0.9,0.1-1.2,0.5c-0.4,0.4-0.6,0.8-0.8,1.3c-0.4,0.9-0.1,2,0.6,2.7c0.3,0.2,0.6,0.2,0.9,0.1C553.4,97.1,553.5,97,553.4,97
		z"/>
	<path class="st7" d="M564.3,83.1c2.5-1.7,5.2-0.9,6.9,0.1s3.2,2.5,5,3.4s4.1,1.3,5.7,0c1.1-1,1.8-2.5,1.8-4c0.2-2.9-0.7-5.8-2.6-8
		c-0.5-0.6-1.3-1.1-1.9-0.8c-0.8,0.4-0.7,1.6-0.4,2.5c0,0-8.7-3.2-14-1.4S564.3,83.1,564.3,83.1z"/>
	<path class="st8" d="M567.6,70.6c0,0,0.1,0.4,0.4,1c0.4,0.9,1,1.6,1.7,2.3c1,1,2.2,1.8,3.5,2.4c0.8,0.4,1.5,0.6,2.4,0.8
		c0.8,0.2,1.8,0.3,2.7,0.6c0.9,0.2,1.8,0.7,2.5,1.3c0.7,0.6,1.2,1.3,1.5,2.1c0.3,0.7,0.4,1.6,0.3,2.4c-0.1,0.7-0.3,1.3-0.7,1.9
		c-0.6,0.8-1.4,1.5-2.3,1.8c-0.3,0.1-0.5,0.1-0.8,0.1c-0.2,0-0.3,0-0.3,0s0.4,0,1-0.3c0.9-0.3,1.6-1,2.1-1.8
		c0.3-0.5,0.6-1.2,0.6-1.8c0.1-0.7,0-1.5-0.3-2.2c-0.3-0.8-0.8-1.5-1.4-2c-0.7-0.5-1.5-0.9-2.3-1.1c-0.9-0.2-1.8-0.4-2.7-0.6
		c-0.8-0.2-1.7-0.5-2.4-0.8c-1.3-0.6-2.5-1.5-3.5-2.6c-0.7-0.7-1.2-1.5-1.6-2.5c-0.1-0.3-0.2-0.5-0.2-0.8
		C567.6,70.8,567.6,70.7,567.6,70.6z"/>
	<path class="st8" d="M561.9,72.1c0,0,0.1,0.4,0.4,1c0.4,0.9,1,1.7,1.8,2.4c1.1,1,2.4,1.7,3.8,2.2c1.7,0.5,3.5,1,5.3,1.2
		c1.8,0.3,3.6,0.8,5.3,1.5c0.8,0.4,1.4,1,1.8,1.8c0.3,0.7,0.3,1.5,0.1,2.2c-0.3,1-1,1.9-1.8,2.4c-0.2,0.2-0.5,0.3-0.7,0.4
		c-0.1,0-0.2,0.1-0.3,0.1c0,0,0.3-0.2,0.9-0.6c0.8-0.6,1.4-1.4,1.6-2.4c0.2-0.6,0.1-1.3-0.1-1.9c-0.3-0.7-0.9-1.2-1.6-1.6
		c-1.7-0.7-3.4-1.2-5.2-1.5c-1.8-0.3-3.6-0.7-5.4-1.3c-1.5-0.5-2.8-1.3-3.9-2.3c-0.7-0.7-1.3-1.6-1.7-2.5c-0.1-0.3-0.2-0.5-0.2-0.8
		C561.9,72.3,561.9,72.2,561.9,72.1z"/>
	<path class="st7" d="M578.8,99.1c-0.2,0.6-0.9,1-1.5,0.8c-0.6-0.2-1-0.8-0.9-1.4c0,0,0,0,0,0c0.2-0.6,0.9-1,1.5-0.8
		C578.6,97.8,579,98.4,578.8,99.1C578.8,99.1,578.8,99.1,578.8,99.1z"/>
	<path class="st7" d="M581,98.4c-0.2,0.1-0.8-0.8-2.1-1.3s-2.4-0.1-2.5-0.3s0.2-0.3,0.7-0.5c1.4-0.4,2.8,0.1,3.7,1.3
		C581.1,98.1,581.1,98.4,581,98.4z"/>
	<path class="st7" d="M566.4,95.5c-0.2,0.6-0.9,1-1.5,0.8c-0.6-0.2-1-0.8-0.8-1.4c0,0,0,0,0,0c0.2-0.6,0.9-1,1.5-0.8
		C566.2,94.2,566.6,94.9,566.4,95.5C566.4,95.5,566.4,95.5,566.4,95.5z"/>
	<path class="st7" d="M568.6,94.4c-0.2,0.1-0.8-0.8-2.1-1.3s-2.4-0.1-2.5-0.3s0.2-0.3,0.7-0.5c0.7-0.2,1.4-0.2,2,0.1
		c0.7,0.2,1.2,0.6,1.6,1.2C568.7,94,568.7,94.3,568.6,94.4z"/>
	<path class="st7" d="M570,105.2c0.7,0,1.5,0.1,2.2,0.3c0.3,0.1,0.7,0.1,0.8-0.1c0.1-0.3,0.2-0.7,0.1-1c0-0.9-0.1-1.8-0.1-2.8
		c-0.2-2.4-0.1-4.7,0.1-7.1c0.3,2.3,0.5,4.7,0.5,7.1c0,1,0,1.9,0,2.8c0.1,0.5,0,0.9-0.3,1.3c-0.2,0.2-0.4,0.3-0.7,0.3
		c-0.2,0-0.4,0-0.6-0.1C571.3,105.8,570.6,105.6,570,105.2z"/>
	<path class="st7" d="M566,104.8c0.2,0-0.3,1.4,0.6,2.8s2.3,1.7,2.3,1.9s-0.4,0.2-1,0c-0.8-0.3-1.5-0.8-1.9-1.5
		c-0.4-0.7-0.6-1.5-0.4-2.3C565.6,105.1,565.9,104.8,566,104.8z"/>
	<path class="st7" d="M570.7,89.6c-0.3,0.3-1.4-0.3-3-0.6s-2.8-0.3-2.9-0.7c0-0.2,0.3-0.4,0.9-0.6c1.6-0.4,3.2,0,4.5,1
		C570.6,89.1,570.8,89.4,570.7,89.6z"/>
	<path class="st7" d="M581.8,94.6c-0.3,0.2-1.1-0.4-2.1-0.8s-2-0.5-2.1-0.8c0-0.2,0.2-0.4,0.7-0.6c1.3-0.3,2.6,0.2,3.4,1.3
		C581.9,94.2,582,94.5,581.8,94.6z"/>
	<path class="st8" d="M558.2,205.6c2.3,0.8,3.7,3.2,3.2,5.6l-6.8,2.7l-1.5-6.5L558.2,205.6z"/>
	<path class="st8" d="M501.5,205.6c0,0,13.5-1.4,22,1.6s19.1,5.2,23.7,4.2c2.5-0.6,4.7-2,6.4-4c0,0-13.5-1.6-19.8-3.7
		c-4.3-1.4-12.7-10.9-28.3-8.6L501.5,205.6z"/>
	<path class="st8" d="M555.7,210.5c-0.5-1.2-1.2-2.4-2.2-3.3l0.1,0.2c-1.4,0.1-2.8,0.3-4.2,0.6c-1.4,0.4-2.6,1.1-3.5,2.2
		c-0.3,0.3-0.5,0.8-0.5,1.3c0.1,0.6,0.5,1.1,1.1,1.5c1.2,1.1,2.7,2,4.3,2.5c1.6,0.5,3.4,0.1,4.5-1.2
		C556,213.1,556.2,211.7,555.7,210.5z"/>
	<path class="st7" d="M545.9,210c0.1-0.3,0.2-0.6,0.4-0.8c0.5-0.6,1.2-1,2-1.3c1.1-0.4,2.4-0.5,3.5-0.3c1.5,0.2,2.8,1.1,3.6,2.3
		c0.4,0.7,0.6,1.4,0.6,2.2c-0.1,0.7-0.3,1.4-0.8,2c-0.4,0.5-0.9,0.9-1.5,1.1c-0.5,0.2-1.1,0.2-1.7,0.2c-0.8-0.1-1.6-0.3-2.3-0.6
		c-0.3-0.1-0.5-0.2-0.6-0.3c-0.1,0-0.1-0.1-0.2-0.1l0.2,0.1l0.6,0.2c0.7,0.3,1.5,0.4,2.3,0.5c1.2,0.1,2.3-0.4,3-1.3
		c0.9-1.2,1-2.8,0.2-4c-0.8-1.2-2-2-3.5-2.3c-1.2-0.2-2.3-0.1-3.5,0.3c-0.8,0.2-1.4,0.6-2,1.2C546.2,209.5,546,209.7,545.9,210z"/>
	<path class="st6" d="M548.8,210.2c-0.3-0.3-0.5-0.5-0.8-0.7c-0.3-0.2-0.7-0.4-1-0.5C547.7,209.2,548.3,209.6,548.8,210.2
		L548.8,210.2z"/>
	<path class="st6" d="M550.9,210.3c0,0-0.3-0.3-0.7-0.7s-0.8-0.6-0.8-0.6c0.3,0.1,0.6,0.3,0.8,0.5
		C550.5,209.8,550.8,210,550.9,210.3z"/>
	<path class="st6" d="M551.8,215c0,0,0-0.2-0.2-0.6c-0.1-0.5-0.4-0.9-0.6-1.3c-0.3-0.4-0.6-0.8-1-1.1c-0.3-0.2-0.5-0.4-0.5-0.4
		c0.2,0.1,0.4,0.2,0.5,0.3c0.4,0.3,0.7,0.7,1,1.1c0.3,0.4,0.5,0.9,0.6,1.3C551.8,214.6,551.8,214.8,551.8,215z"/>
	<path class="st6" d="M554,213.3c0-0.2,0-0.4,0-0.6c0-0.5,0-0.9-0.1-1.4c-0.1-0.5-0.2-0.9-0.4-1.3c-0.1-0.3-0.2-0.5-0.2-0.5
		s0,0,0.1,0.1c0.1,0.1,0.1,0.2,0.2,0.4c0.2,0.4,0.3,0.9,0.4,1.4c0.1,0.5,0.1,0.9,0.1,1.4c0,0.1,0,0.3,0,0.4
		C554.1,213.2,554.1,213.2,554,213.3z"/>
	<path class="st7" d="M554.1,209.1c-2.2,0.7-4.1,2.1-5.5,3.9c0.1-0.3,0.3-0.6,0.6-0.9c1-1.3,2.4-2.3,4-2.8
		C553.4,209.2,553.7,209.1,554.1,209.1z"/>
	<path class="st7" d="M550.7,208c-0.8,0.6-1.4,1.3-1.8,2.1c-0.4,0.8-0.7,1.8-0.7,2.7c-0.1-0.3-0.1-0.6,0-0.8
		c0.1-0.7,0.3-1.3,0.6-1.9c0.3-0.6,0.8-1.1,1.3-1.6C550.2,208.2,550.5,208.1,550.7,208z"/>
	<path class="st7" d="M554.4,215c0,0-0.1-0.3-0.3-0.8c-0.3-0.6-0.7-1.2-1.2-1.6c-1.2-1-2.5-1.6-2.4-1.6c0.3,0.1,0.5,0.2,0.8,0.3
		c0.6,0.3,1.2,0.7,1.8,1.1c0.5,0.5,0.9,1.1,1.2,1.7C554.4,214.4,554.5,214.7,554.4,215z"/>
	<path class="st7" d="M526,207.9c-0.5,0-0.9-0.1-1.3-0.3c-0.8-0.2-2.1-0.5-3.6-0.8c-4-0.8-8-1.2-12-1.4c-2.2-0.2-4.4,0-6.6,0.5
		c-1.7,0.5-3.4,1.3-4.8,2.4c-1.3,1-2.4,2.3-3.4,3.6c0.2-0.4,0.4-0.8,0.7-1.2c0.7-1,1.5-1.9,2.5-2.7c1.4-1.2,3.1-2,4.9-2.5
		c2.2-0.5,4.4-0.7,6.7-0.6c4.1,0.2,8.1,0.7,12.1,1.6c1.5,0.3,2.7,0.7,3.6,0.9C525.2,207.5,525.6,207.7,526,207.9z"/>
	<path class="st7" d="M426.6,194.3c0.2-0.2,0.4-0.4,0.7-0.5c0.7-0.5,1.4-0.9,2.2-1.2c2.9-1.2,6.1-1.5,9.1-0.7c2.1,0.5,4,1.5,5.6,2.9
		c1.8,1.6,3.4,3.5,4.8,5.5c1.5,2.2,3.1,4.4,4.8,6.4c1.8,2.2,3.9,4.2,6,6.1c4.4,3.9,9.2,7,14,8.5c2.3,0.8,4.7,1.2,7.1,1.2
		c2.1,0.1,4.1-0.4,6-1.5c1.4-0.9,2.7-2.1,3.7-3.5c0.9-1.2,1.7-2.3,2.3-3.2l1.4-2.1c0.1-0.2,0.3-0.5,0.5-0.7
		c-0.1,0.3-0.3,0.5-0.4,0.8l-1.3,2.1c-0.6,0.9-1.3,2-2.2,3.3c-1,1.4-2.3,2.7-3.8,3.7c-1.9,1.1-4,1.7-6.1,1.6c-2.4,0-4.9-0.4-7.2-1.1
		c-4.9-1.6-9.8-4.7-14.2-8.6c-2.2-1.9-4.2-4-6.1-6.2c-1.7-2.1-3.3-4.2-4.8-6.5c-1.3-2-2.9-3.9-4.6-5.5c-1.6-1.4-3.4-2.4-5.5-2.9
		c-2.9-0.8-6.1-0.6-8.9,0.5C428.5,193.2,427.5,193.7,426.6,194.3z"/>
	<path class="st6" d="M451.5,185.4h-0.7c-0.5,0-1.1,0.1-1.9,0.1c-4.2,0.5-8.2,2-11.7,4.5c-0.6,0.5-1.2,0.9-1.5,1.2l-0.5,0.4
		c0.6-0.6,1.3-1.2,2-1.7c3.4-2.5,7.5-4.1,11.7-4.5C449.7,185.4,450.6,185.4,451.5,185.4z"/>
	<path class="st6" d="M467.5,195.1l-0.7,0.1c-0.5,0.1-1.2,0.2-2,0.3c-2.2,0.4-4.3,1.2-6.3,2.1c-2,1-3.9,2.2-5.6,3.6
		c-0.6,0.5-1.2,1-1.5,1.3l-0.5,0.5c0.6-0.7,1.3-1.3,2-1.9c1.7-1.4,3.6-2.7,5.6-3.6c2-1,4.1-1.7,6.3-2.1
		C465.7,195.3,466.6,195.2,467.5,195.1z"/>
	<path class="st6" d="M467.1,217.9c-0.1-0.3-0.1-0.5-0.1-0.8c-0.1-0.7-0.1-1.4-0.1-2.1c0.2-2.3,0.8-4.6,2-6.7c1.2-2,2.6-3.9,4.1-5.6
		c1.2-1.4,2-2.1,2-2.1l-0.5,0.6l-1.4,1.6c-1.6,1.7-2.9,3.6-4.1,5.6c-1.2,2-1.9,4.3-2.1,6.6c-0.1,0.7-0.1,1.4,0,2.1
		c0,0.3,0.1,0.4,0.1,0.6L467.1,217.9z"/>
	<path class="st6" d="M484.7,207.8c-0.1-0.2-0.2-0.5-0.3-0.8c-0.3-1.3-0.3-2.6-0.1-3.9c0.1-0.3,0.1-0.5,0.2-0.8c0,0-0.1,0.3-0.2,0.8
		c-0.2,1.3-0.2,2.6,0.1,3.9C484.6,207.5,484.7,207.8,484.7,207.8z"/>
	<path class="st6" d="M487.7,220c-0.6-0.4-1.1-0.8-1.6-1.2c-2.5-2.1-4.2-5-5-8.1c-0.2-0.7-0.3-1.3-0.3-2c0,0,0,0.2,0.1,0.5
		s0.1,0.8,0.3,1.4c0.8,3.1,2.5,5.9,5,8.1c0.4,0.3,0.7,0.6,1.1,0.9C487.6,219.9,487.7,220,487.7,220z"/>
	<path class="st6" d="M501.2,206.2c0,0-0.5-0.2-1.3-0.7c-1-0.6-2-1.3-2.9-2c-0.9-0.7-1.8-1.5-2.6-2.4c-0.6-0.7-1-1.1-1-1.1l0.3,0.3
		l0.7,0.8c0.8,0.8,1.7,1.6,2.6,2.4c0.9,0.7,1.9,1.4,2.9,2l0.9,0.6L501.2,206.2z"/>
	<path class="st6" d="M510.8,204.9c0,0,0-0.1,0-0.4s0-0.7,0-1.1c0-0.9-0.1-2.2-0.3-3.5s-0.4-2.6-0.6-3.5l-0.2-1.1
		c-0.1-0.3-0.1-0.4-0.1-0.4s0,0.1,0.1,0.4s0.2,0.6,0.3,1c0.2,0.9,0.5,2.1,0.6,3.5c0.2,1.2,0.3,2.4,0.3,3.5c0,0.4,0,0.8,0,1.1
		S510.8,204.9,510.8,204.9z"/>
	<path class="st6" d="M523.3,198c0,0.1,0,0.2,0,0.3c0,0.3-0.1,0.6-0.1,0.9c-0.1,0.8-0.2,1.8-0.5,2.9s-0.5,2.1-0.7,2.9
		c-0.1,0.3-0.2,0.6-0.3,0.9s-0.1,0.3-0.1,0.3c0-0.1,0-0.2,0.1-0.3c0.1-0.3,0.2-0.6,0.2-0.9c0.2-0.7,0.5-1.7,0.7-2.9s0.4-2.1,0.5-2.9
		c0-0.3,0.1-0.6,0.1-0.9L523.3,198z"/>
	<path class="st6" d="M531.8,206.3c0.1-0.5,0.2-1.1,0.3-1.6c0.1-0.5,0.2-1.1,0.4-1.6c-0.1,0.5-0.2,1.1-0.3,1.6
		C532,205.2,531.9,205.7,531.8,206.3z"/>
	<path class="st6" d="M545.8,210.9c0,0,0-0.3,0.1-0.7s0.1-1,0.1-1.6c0-0.4,0-0.9,0-1.6v-0.5c0-0.1,0-0.1,0-0.2
		c0,0.2,0.1,0.5,0.1,0.7c0,0.4,0,1,0,1.6c0,0.5-0.1,1.1-0.1,1.6C545.9,210.5,545.8,210.7,545.8,210.9z"/>
	<path class="st8" d="M548.5,214.2c-1.1-4.4-5.5-7.1-10-7.9s-8.9,0.2-13.4,0.8s-9.2,0.7-13.2-1.4c-1.3,2.3-1.9,5-1.9,7.6h2.3
		c0.5,3.4,3.6,6,6.9,6.7s5.5,0.8,8.7-0.6c3.3-1.4,7.5-3.6,10.8-4.7s6.8-1.7,10-0.6"/>
	<path class="st7" d="M514.2,206.8c-0.1,0.3-0.2,0.6-0.4,0.9c-0.3,0.7-0.6,1.5-0.8,2.3c-0.2,0.8-0.4,1.6-0.5,2.4
		c0,0.3-0.1,0.7-0.1,1c0-0.3,0-0.7,0-1c0.1-0.8,0.2-1.6,0.4-2.4c0.2-0.8,0.5-1.6,0.9-2.3C513.8,207.3,514,207.1,514.2,206.8z"/>
	<path class="st7" d="M512.6,211.5c-0.4,0-0.8,0-1.2-0.1c-0.4,0-0.8-0.1-1.2-0.2c0.4-0.1,0.8-0.1,1.3,0
		C511.8,211.2,512.2,211.3,512.6,211.5z"/>
	<path class="st7" d="M513.1,208.8c0,0-0.5-0.3-1.1-0.5s-1.1-0.2-1.1-0.3C511.7,207.9,512.5,208.2,513.1,208.8z"/>
	<path class="st7" d="M517.7,207.4h0.7c0.5,0,1.1,0,2,0c2.5,0,4.9-0.3,7.3-0.8c3.6-0.8,7.3-0.9,11-0.3c2.2,0.3,4.2,1.2,6.1,2.4
		c2,1.4,3.4,3.4,4.2,5.6l0.1,0.2l-0.2-0.1c-0.9-0.5-2-0.7-3-0.8c-2.5-0.1-5.1,0.4-7.4,1.3c-2.2,0.8-4.4,1.7-6.6,2.7
		c-1,0.5-2,1-3,1.4c-0.9,0.4-1.9,0.8-2.9,1.1c-1.8,0.4-3.7,0.5-5.6,0.2c-1.5-0.2-3-0.8-4.3-1.6c-1-0.7-1.8-1.5-2.4-2.5
		c-0.4-0.6-0.7-1.3-0.9-2c-0.1-0.5-0.2-0.8-0.2-0.8c0.2,1,0.6,1.9,1.1,2.7c0.6,1,1.4,1.8,2.4,2.5c1.3,0.8,2.7,1.4,4.3,1.6
		c1.8,0.3,3.7,0.2,5.5-0.3c1-0.3,2-0.6,2.9-1.1c1-0.4,2-0.9,3-1.4c2.1-1,4.3-1.9,6.6-2.7c2.4-0.9,4.9-1.4,7.5-1.3
		c1.1,0.1,2.1,0.4,3.1,0.8l-0.1,0.1c-0.7-2.2-2.2-4.2-4.1-5.5c-1.8-1.2-3.8-2.1-6-2.4c-3.6-0.6-7.3-0.5-10.9,0.3
		c-2.4,0.5-4.9,0.7-7.3,0.7C518.7,207.4,517.7,207.4,517.7,207.4z"/>
	<path class="st6" d="M517.5,219.5c-0.1-0.1-0.1-0.3-0.2-0.5c-0.1-0.4-0.3-0.8-0.3-1.3c-0.6-2.9-0.4-5.9,0.6-8.6
		c0.1-0.4,0.3-0.8,0.5-1.2c0.1-0.2,0.1-0.3,0.2-0.4c0,0-0.3,0.6-0.6,1.7c-0.5,1.4-0.7,2.8-0.8,4.3c-0.1,1.4,0,2.9,0.2,4.3
		C517.4,218.9,517.6,219.5,517.5,219.5z"/>
	<path class="st6" d="M526.2,213.6c0.1,0.3,0.1,0.6,0.2,0.8c0.1,0.5,0.2,1.2,0.4,2c0.4,1.6,0.8,2.8,0.8,2.8
		c-0.1-0.2-0.3-0.5-0.3-0.8c-0.2-0.5-0.4-1.2-0.6-2c-0.2-0.7-0.3-1.3-0.4-2C526.2,214.2,526.2,213.9,526.2,213.6z"/>
	<path class="st6" d="M525,210.3c0.1,0.5,0.1,1.1,0.1,1.6c0.1,0.9,0.2,1.6,0.2,1.6C524.9,212.5,524.8,211.3,525,210.3L525,210.3z"/>
	<path class="st6" d="M527.1,206.8c0.1,0-0.2,0.7-0.4,1.5s-0.1,1.5-0.2,1.5c-0.1-0.5-0.1-1.1,0-1.6
		C526.6,207.7,526.8,207.2,527.1,206.8z"/>
	<path class="st6" d="M534,208.7c-0.6-0.7-0.8-1.6-0.6-2.5c0.1,0,0,0.6,0.2,1.3S534.1,208.7,534,208.7z"/>
	<path class="st6" d="M539.4,214.3c-0.2-0.2-0.4-0.5-0.6-0.8c-0.4-0.7-0.8-1.4-1.1-2.1c-0.3-0.7-0.6-1.5-0.8-2.2
		c-0.1-0.3-0.2-0.7-0.2-1c0.1,0.3,0.2,0.6,0.3,0.9c0.2,0.6,0.5,1.4,0.8,2.2s0.7,1.6,1,2.1C539.1,213.7,539.3,214,539.4,214.3z"/>
	<path class="st6" d="M540.9,207.1c0,0.1-0.1,0.2-0.3,0.4s-0.3,0.4-0.3,0.4s0-0.3,0.2-0.6S540.9,207,540.9,207.1z"/>
	<path class="st6" d="M548.8,214.5c-0.1-0.1-0.2-0.2-0.3-0.3c-1.3-1.1-2.9-1.8-4.7-2c-2-0.2-4,0-5.9,0.6c-2.3,0.8-4.6,1.7-6.8,2.8
		c-2.2,1.1-4.6,1.7-7,2c-2,0.2-4,0-6-0.5c-1.3-0.3-2.6-0.8-3.8-1.5c-0.4-0.2-0.7-0.4-0.9-0.6l-0.3-0.2l0.3,0.2
		c0.2,0.1,0.5,0.3,1,0.5c3,1.6,6.3,2.3,9.7,2c2.4-0.3,4.8-1,7-2c2.2-1.1,4.5-2,6.8-2.8c1.9-0.6,3.9-0.9,5.9-0.6
		c1.3,0.2,2.6,0.6,3.8,1.4C548.1,213.9,548.5,214.2,548.8,214.5z"/>
	<path class="st6" d="M532.1,209.8c0,0-0.3,0.1-0.7,0.3s-1.1,0.4-2,0.7c-2.2,0.8-4.5,1.1-6.8,1.1c-2.3-0.1-4.6-0.5-6.8-1.1
		c-1.7-0.5-2.7-0.9-2.7-0.9l0.8,0.2l2,0.6c2.2,0.7,4.5,1.1,6.8,1.1c2.3,0,4.6-0.4,6.8-1.1c0.8-0.3,1.5-0.5,2-0.7L532.1,209.8z"/>
	<path class="st6" d="M542.3,208.8l-0.3-0.2c-0.2-0.2-0.5-0.3-0.7-0.4c-0.9-0.5-1.9-0.8-2.9-1c-1.5-0.3-3-0.3-4.5-0.2
		c-1.7,0.2-3.5,0.5-5.5,0.9c-3.3,0.7-6.7,0.8-10,0.3c-2.6-0.4-4.1-0.8-4.1-0.8l1.1,0.2c0.7,0.1,1.7,0.3,3,0.5
		c3.3,0.5,6.7,0.4,10-0.3c1.9-0.4,3.8-0.7,5.5-0.9c1.5-0.2,3-0.1,4.5,0.2c1,0.2,2,0.5,2.9,1C541.7,208.3,542,208.5,542.3,208.8z"/>
	<path class="st7" d="M548.6,214c-0.8-1.1-1.7-2.1-2.8-3c-1.1-0.9-2.4-1.6-3.8-2.1c-1.7-0.5-3.5-0.6-5.3-0.3c-1.8,0.4-3.5,1-5,2
		c-1.4,0.8-2.7,1.7-3.9,2.2c-0.9,0.5-1.9,0.8-2.9,1c-0.3,0-0.5,0.1-0.8,0.1c-0.2,0-0.3,0-0.3,0c1.3-0.3,2.6-0.7,3.8-1.4
		c1.1-0.6,2.4-1.4,3.8-2.3c1.6-1,3.3-1.7,5.1-2.1c3.4-0.6,6.9,0.4,9.5,2.6c0.8,0.7,1.4,1.4,2,2.3C548.3,213.4,548.4,213.7,548.6,214
		z"/>
	<path class="st7" d="M534.7,208.9c-1.9,0.8-4,1.3-6.1,1.4c-2.1,0.2-4.2,0.1-6.2-0.5c0-0.1,2.8,0.2,6.2,0S534.7,208.8,534.7,208.9z"
		/>
	<path class="st6" d="M529.7,205.8l-1.1-0.5c-0.8-0.3-1.8-0.8-3.3-1.3c-4-1.5-8.3-2.4-12.6-2.6c-3-0.1-5.9,0.3-8.8,1.1
		c-3.3,1-6.3,2.7-8.7,5.1c-2.6,2.5-4.8,5.6-7.8,8.2c-1.5,1.3-3.3,2.3-5.3,2.8c-2,0.4-4.1,0.3-6.1-0.4c-2-0.7-3.8-1.7-5.4-3
		c-1.5-1.3-2.9-2.7-4.1-4.4c-2.4-3.1-4.3-6.4-6.5-9.3c-2-2.7-4.3-5.3-6.9-7.5c-2.3-1.9-4.8-3.5-7.5-4.7c-4-1.7-8.4-2.1-12.6-1.3
		c-1.1,0.3-2.3,0.6-3.3,1.1l-1.1,0.6l1.1-0.6c1.1-0.5,2.2-0.9,3.3-1.1c4.2-0.9,8.7-0.5,12.7,1.2c2.8,1.1,5.3,2.7,7.6,4.7
		c2.6,2.2,5,4.7,7,7.5c2.2,2.9,4.1,6.1,6.5,9.3c1.2,1.6,2.6,3,4.1,4.3c1.6,1.3,3.4,2.3,5.3,3c1.9,0.7,4,0.8,6,0.4
		c1.9-0.5,3.7-1.5,5.2-2.8c3-2.6,5.2-5.7,7.8-8.2c2.5-2.4,5.5-4.2,8.8-5.1c2.9-0.9,5.8-1.2,8.8-1.1c4.3,0.2,8.5,1.1,12.6,2.6
		C528.2,205.1,529.7,205.8,529.7,205.8z"/>
	<path class="st6" d="M480.7,208.8c-0.5,0-1.1,0-1.6-0.1c-1.4-0.2-2.8-0.8-4-1.6c-1.7-1.3-3.2-2.8-4.4-4.6c-1.4-2.2-3-4.3-4.6-6.3
		c-3.1-3.6-6.9-6.6-11.1-8.8c-1.3-0.7-2.6-1.3-3.9-1.8l-1.4-0.5c0,0,0.5,0.2,1.5,0.5c1.3,0.5,2.7,1.1,3.9,1.8
		c4.2,2.2,8,5.2,11.1,8.8c1.7,2,3.2,4.1,4.6,6.3c1.2,1.8,2.7,3.3,4.4,4.6c1.2,0.8,2.5,1.4,3.9,1.7c0.4,0.1,0.8,0.1,1.2,0.1
		L480.7,208.8z"/>
	<path class="st6" d="M526.7,200.3c-0.1-0.1-0.2-0.1-0.3-0.2c-0.2-0.1-0.5-0.3-0.9-0.5c-1.1-0.6-2.2-1.1-3.3-1.6
		c-7.6-3.1-16.1-2.8-23.5,0.7c-1.1,0.5-2.2,1.1-3.2,1.8c-0.4,0.2-0.6,0.4-0.8,0.6l-0.3,0.2c0,0,0.4-0.3,1.1-0.8
		c1-0.7,2.1-1.3,3.2-1.8c7.4-3.6,16-3.9,23.6-0.7c1.1,0.5,2.2,1,3.3,1.6C526.3,200,526.7,200.3,526.7,200.3z"/>
	<path class="st6" d="M506.4,204.8c0,0,0-0.1-0.1-0.4s-0.2-0.6-0.3-1.1c-0.4-1.2-0.9-2.3-1.4-3.4c-0.6-1.1-1.2-2.2-1.9-3.2
		c-0.3-0.4-0.5-0.7-0.6-0.9s-0.2-0.3-0.2-0.3c0.3,0.4,0.7,0.8,1,1.2c1.4,2,2.6,4.3,3.3,6.6C506.2,203.8,506.3,204.3,506.4,204.8z"/>
	<path class="st6" d="M517,195.5c0,0,0.1,0.6,0.1,1.5c0,1.2-0.1,2.3-0.2,3.5c-0.2,1.2-0.4,2.3-0.8,3.4c-0.3,0.9-0.5,1.4-0.5,1.4
		s0-0.1,0.1-0.4s0.2-0.7,0.3-1c0.3-1.1,0.6-2.3,0.7-3.4c0.2-1.2,0.3-2.3,0.3-3.5c0-0.4,0-0.7,0-1.1S517,195.5,517,195.5z"/>
	<path class="st6" d="M494,212.4c-0.4-0.2-0.8-0.5-1.2-0.7c-0.9-0.6-1.8-1.4-2.5-2.2c-0.8-0.8-1.5-1.6-2.2-2.5
		c-0.3-0.4-0.5-0.8-0.7-1.2c0,0,0.1,0.1,0.2,0.3s0.3,0.5,0.6,0.8c0.6,0.9,1.4,1.7,2.1,2.5c0.8,0.8,1.6,1.5,2.5,2.2l0.8,0.6
		L494,212.4z"/>
	<path class="st6" d="M478.5,209.3c-0.1-0.3-0.2-0.7-0.2-1c-0.1-0.8-0.2-1.7-0.1-2.6c0.1-0.9,0.2-1.7,0.4-2.5c0.1-0.3,0.2-0.7,0.4-1
		c0,0.1,0,0.2-0.1,0.3c-0.1,0.2-0.1,0.4-0.2,0.7c-0.2,0.8-0.4,1.7-0.4,2.5c0,0.9,0,1.7,0.1,2.6c0,0.3,0.1,0.6,0.1,0.8
		C478.5,209.2,478.5,209.2,478.5,209.3z"/>
	<path class="st6" d="M478.5,222.3c-0.3-0.5-0.5-1.1-0.7-1.6c-0.5-1.3-0.9-2.7-1.2-4.1c-0.3-1.4-0.4-2.8-0.5-4.3
		c0-0.6,0-1.2,0.1-1.8v0.5c0,0.3,0,0.8,0,1.3c0.1,1.4,0.2,2.9,0.5,4.3c0.3,1.4,0.7,2.8,1.2,4.1c0.2,0.5,0.4,0.9,0.5,1.2L478.5,222.3
		z"/>
	<path class="st6" d="M490.2,201.4c0,0.3,0.1,0.5,0.2,0.8c0.2,0.4,0.4,0.7,0.4,0.7c-0.2-0.2-0.4-0.4-0.5-0.7
		C490.2,202,490.2,201.7,490.2,201.4z"/>
	<path class="st6" d="M470.7,197.7l-0.6,0.4c-0.4,0.2-1,0.6-1.8,1c-3.8,2.3-7.2,5.3-9.9,8.9c-0.5,0.7-0.9,1.3-1.2,1.6
		s-0.4,0.6-0.4,0.6c0.5-0.8,1-1.6,1.5-2.3c2.7-3.6,6-6.6,9.9-8.9C469.1,198.5,469.9,198.1,470.7,197.7z"/>
	<path class="st6" d="M458.7,187.7l-0.6,0.1c-0.4,0.1-1,0.2-1.7,0.4c-1.9,0.5-3.7,1.2-5.4,2c-1.7,0.8-3.4,1.8-5,2.8
		c-0.6,0.4-1.1,0.8-1.4,1l-0.5,0.4c0,0,0.7-0.6,1.9-1.4c1.6-1.1,3.3-2.1,5-2.9c1.8-0.8,3.6-1.5,5.5-2
		C457.8,187.8,458.7,187.7,458.7,187.7z"/>
	<path class="st6" d="M540.3,205.3c0,0.2,0,0.4-0.1,0.6c0,0.2-0.1,0.4-0.2,0.6c0-0.2,0-0.4,0.1-0.6
		C540.1,205.7,540.2,205.5,540.3,205.3z"/>
	<path class="st14" d="M585.7,204.9c0,0,4.5,0.9,6.4,1.4c0.6,0.1,1.3,0,1.9,0.1c2.8,0.5,5.6,0.4,8.3-0.1c1.9-0.7,2,1.7-0.1,2.8
		c-1,0.6-2.2,1-3.3,1.2l5,4c0.3,0.2,0.4,0.5,0.5,0.8l1.3,8.8c0.2,0.7-0.3,1.5-1,1.7c-0.4,0.2-0.8,0-1-0.3c0,0,0,0,0,0l0.1,1.2
		c0.1,0.8-0.4,1.6-1.3,1.8c-0.8,0.1-1.6-0.4-1.8-1.3c0,0,0-0.1,0-0.1l-1.8,1c0,0-1.2,1.2-2.4-0.5c-1-1.4-4.1-6.9-4.1-6.9
		s-13.2-5.6-13-7.8L585.7,204.9z"/>
	<path class="st18" d="M600.9,226.9c-0.2-0.7-0.3-1.4-0.4-2.1c-0.2-1.3-0.6-3.1-0.8-5.1c-0.2-1-0.4-1.9-0.6-2.7
		c-0.1-0.3-0.4-0.6-0.7-0.8l-0.9-0.6c-0.6-0.4-1.2-0.8-1.8-1.3c0.7,0.2,1.4,0.5,2,0.9l1,0.5c0.4,0.2,0.8,0.6,0.9,1
		c0.3,0.9,0.5,1.9,0.7,2.8c0.3,2,0.6,3.8,0.7,5.2C601,225.4,601,226.2,600.9,226.9z"/>
	<path class="st18" d="M603.8,225.2c-0.2,0-0.5-3.2-1.3-7c-0.1-0.9-0.4-1.7-0.8-2.5c-0.5-0.5-1-1.1-1.6-1.5
		c-0.4-0.3-0.8-0.6-1.2-0.9c-0.3-0.2-0.5-0.2-0.5-0.3s0.2-0.1,0.6,0.1c0.5,0.2,0.9,0.4,1.4,0.8c0.6,0.4,1.2,0.9,1.8,1.5
		c0.5,0.8,0.9,1.7,1,2.7c0.4,1.6,0.6,3.3,0.8,5C603.8,223.8,603.8,224.5,603.8,225.2z"/>
	<path class="st18" d="M593,216.9c0.6,0.2,1.2,0.5,1.7,0.8l0.8,0.5c0.4,0.2,0.7,0.4,1,0.7c0.3,0.3,0.5,0.7,0.6,1.2
		c0.1,0.4,0.3,0.8,0.4,1.3c0.7,2,1.3,4.1,1.7,6.3c-0.9-2-1.6-4-2.2-6.1l-0.4-1.3c-0.1-0.4-0.2-0.7-0.5-1c-0.2-0.3-0.5-0.5-0.8-0.6
		l-0.8-0.5C594,217.7,593.5,217.3,593,216.9z"/>
	<path class="st18" d="M593.3,207.4c0.1-0.2,1.9,0.5,4,1.7s3.6,2.5,3.5,2.6s-1.7-1-3.8-2.1l-2.6-1.5
		C594.1,207.8,593.7,207.6,593.3,207.4z"/>
</g>
</svg>
